<svg xmlns="http://www.w3.org/2000/svg" xmlns:xlink="http://www.w3.org/1999/xlink" width="745.705" height="743.167" viewBox="0 0 745.705 743.167">
  <defs>
    <filter id="Rectangle_37" x="126.667" y="10.507" width="478.697" height="630.75" filterUnits="userSpaceOnUse">
      <feOffset dy="20" input="SourceAlpha"/>
      <feGaussianBlur stdDeviation="30" result="blur"/>
      <feFlood flood-opacity="0.169"/>
      <feComposite operator="in" in2="blur"/>
      <feComposite in="SourceGraphic"/>
    </filter>
    <filter id="Background" x="102.317" y="143.622" width="527.397" height="432.16" filterUnits="userSpaceOnUse">
      <feOffset dy="20" input="SourceAlpha"/>
      <feGaussianBlur stdDeviation="30" result="blur-2"/>
      <feFlood flood-opacity="0.102"/>
      <feComposite operator="in" in2="blur-2"/>
      <feComposite in="SourceGraphic"/>
    </filter>
    <clipPath id="clip-path">
      <rect id="Rectangle_52" data-name="Rectangle 52" width="533.541" height="312.224" transform="translate(0 0)" fill="none"/>
    </clipPath>
  </defs>
  <g id="AI_Illustration" data-name="AI Illustration" transform="translate(-105.67 -2474.955)">
    <path id="Oval_curve_grey" data-name="Oval curve grey" d="M203.159,282.9c115.22,3.138,216.5-58.671,214.173-144.081C416,90.134,370.581-18.605,308.831,4.587s-93.676,48.4-144.867,19.568C44.916-42.886-2.248,42.044.082,127.453S87.939,279.76,203.159,282.9Z" transform="translate(199.677 2914.358) rotate(-71)" fill="#f1f1f1"/>
    <path id="Oval_curve_green" data-name="Oval curve green" d="M269.935.194C429.483,5.571,574.615,121.1,577.842,267.442c1.839,83.417-51.736,152.9-139.124,107.339s-134.761,21.07-203.571,65.758C75.124,544.462,3.294,394.317.067,247.971S110.387-5.182,269.935.194Z" transform="matrix(-0.719, 0.695, -0.695, -0.719, 851.375, 2816.688)" fill="#dcf3f8"/>
    <g id="Background_Docs" data-name="Background Docs" transform="translate(322.337 2555.462)" opacity="0.9">
      <g transform="matrix(1, 0, 0, 1, -216.67, -80.51)" filter="url(#Rectangle_37)">
        <rect id="Rectangle_37-2" data-name="Rectangle 37" width="298.697" height="450.75" rx="5" transform="translate(216.67 80.51)" fill="#fff"/>
      </g>
      <path id="Rectangle_38" data-name="Rectangle 38" d="M5,0H293.7a5,5,0,0,1,5,5V34.631a0,0,0,0,1,0,0H0a0,0,0,0,1,0,0V5A5,5,0,0,1,5,0Z" fill="#f8f8f8" opacity="0.65"/>
      <rect id="Rectangle_39" data-name="Rectangle 39" width="45.454" height="7.576" rx="3.788" transform="translate(126.621 13.528)" fill="#e1e1e1" opacity="0.65"/>
      <g id="Logo" transform="translate(25.432 57.9)" opacity="0.65">
        <circle id="Ellipse_1" data-name="Ellipse 1" cx="18.027" cy="18.027" r="18.027" transform="translate(0 0)" fill="#37c699"/>
        <text id="Aligner" transform="translate(4.292 19.877)" fill="#fff" font-size="7" font-family="Nunito-Black, Nunito" font-weight="800"><tspan x="0" y="0">Aligner</tspan></text>
      </g>
      <rect id="Rectangle_40" data-name="Rectangle 40" width="51.947" height="10.281" rx="3" transform="translate(68.181 63.852)" fill="#ececec" opacity="0.65"/>
      <rect id="Rectangle_41" data-name="Rectangle 41" width="62.228" height="10.281" rx="3" transform="translate(68.181 77.38)" fill="#ececec" opacity="0.65"/>
      <rect id="Rectangle_42" data-name="Rectangle 42" width="246.208" height="10.281" rx="3" transform="translate(25.432 110.929)" fill="#ececec" opacity="0.65"/>
      <rect id="Rectangle_49" data-name="Rectangle 49" width="246.208" height="10.281" rx="3" transform="translate(21.104 385.275)" fill="#ececec" opacity="0.65"/>
      <rect id="Rectangle_50" data-name="Rectangle 50" width="160.712" height="10.281" rx="3" transform="translate(21.104 402.05)" fill="#ececec" opacity="0.65"/>
      <rect id="Rectangle_51" data-name="Rectangle 51" width="112.552" height="10.281" rx="3" transform="translate(21.104 418.824)" fill="#ececec" opacity="0.65"/>
      <rect id="Rectangle_43" data-name="Rectangle 43" width="168.287" height="10.281" rx="3" transform="translate(25.432 127.704)" fill="#ececec" opacity="0.65"/>
    </g>
    <g id="Zoom" transform="translate(297.987 2688.577)">
      <g transform="matrix(1, 0, 0, 1, -192.32, -213.62)" filter="url(#Background)">
        <rect id="Background-2" data-name="Background" width="347.397" height="252.161" rx="10" transform="translate(192.32 213.62)" fill="#fff"/>
      </g>
      <g id="Red" transform="translate(15.692 19.48)">
        <rect id="Rectangle_47" data-name="Rectangle 47" width="317.095" height="100.648" rx="10" fill="#ffecec"/>
        <rect id="Rectangle_45" data-name="Rectangle 45" width="246.208" height="17.857" rx="5" transform="translate(12.987 14.61)" fill="#ff6b6b"/>
        <rect id="Rectangle_46" data-name="Rectangle 46" width="178.569" height="17.857" rx="5" transform="translate(12.987 41.666)" fill="#ff6b6b"/>
        <rect id="Rectangle_48" data-name="Rectangle 48" width="178.569" height="17.857" rx="5" transform="translate(12.987 68.722)" fill="#ff6b6b"/>
      </g>
      <g id="Green" transform="translate(15.692 133.656)">
        <rect id="Rectangle_47-2" data-name="Rectangle 47" width="317.095" height="100.648" rx="10" transform="translate(0 0)" fill="#e4fff6"/>
        <rect id="Rectangle_45-2" data-name="Rectangle 45" width="246.208" height="17.857" rx="5" transform="translate(12.987 14.61)" fill="#37c699"/>
        <rect id="Rectangle_46-2" data-name="Rectangle 46" width="178.569" height="17.857" rx="5" transform="translate(12.987 41.666)" fill="#37c699"/>
        <rect id="Rectangle_48-2" data-name="Rectangle 48" width="178.569" height="17.857" rx="5" transform="translate(12.987 68.722)" fill="#37c699"/>
      </g>
    </g>
    <g id="Dashed_line" data-name="Dashed line" transform="translate(199.282 2791.93)" clip-path="url(#clip-path)">
      <g id="Ellipse_13" data-name="Ellipse 13" transform="translate(28.679 -180.316)" fill="none" stroke="#989898" stroke-width="5" stroke-dasharray="15">
        <circle cx="237.821" cy="237.821" r="237.821" stroke="none"/>
        <circle cx="237.821" cy="237.821" r="235.321" fill="none"/>
      </g>
    </g>
    <path id="iconmonstr-check-mark-4" d="M14.5,0A14.743,14.743,0,0,0,0,14.976,14.743,14.743,0,0,0,14.5,29.953a14.743,14.743,0,0,0,14.5-14.976A14.743,14.743,0,0,0,14.5,0Zm-1.51,21.581L7.55,16.135l2.243-2.319,3.193,3.128L19.8,9.725l2.243,2.318Z" transform="translate(609.19 2815.894)" fill="#37c699"/>
    <g id="translate" transform="translate(204.896 2711.557)">
      <path id="Path_1342" data-name="Path 1342" d="M36.854,0H1.474A1.474,1.474,0,0,0,0,1.474v35.38a1.474,1.474,0,0,0,1.474,1.474H33.906a1.474,1.474,0,0,0,1.474-1.474V35.38h1.474a1.474,1.474,0,0,0,1.474-1.474V1.474A1.475,1.475,0,0,0,36.854,0Z" transform="translate(0 0)" fill="#cfd8dc"/>
      <path id="Path_1343" data-name="Path 1343" d="M236.14,234.667h35.38a1.474,1.474,0,0,1,1.474,1.474v35.38A1.474,1.474,0,0,1,271.52,273H236.14a1.474,1.474,0,0,1-1.474-1.474v-35.38A1.474,1.474,0,0,1,236.14,234.667Z" transform="translate(-202.234 -202.235)" fill="#2196f3"/>
      <g id="Group_88" data-name="Group 88" transform="translate(8.845 5.897)">
        <path id="Path_1344" data-name="Path 1344" d="M83.164,88.281H65.474a1.474,1.474,0,0,1,0-2.948h17.69a1.474,1.474,0,1,1,0,2.948Z" transform="translate(-64 -79.436)" fill="#fafafa"/>
        <path id="Path_1345" data-name="Path 1345" d="M129.474,51.511A1.474,1.474,0,0,1,128,50.037v-5.9a1.474,1.474,0,1,1,2.948,0v5.9A1.474,1.474,0,0,1,129.474,51.511Z" transform="translate(-119.155 -42.666)" fill="#fafafa"/>
        <path id="Path_1346" data-name="Path 1346" d="M98.6,105.971a1.474,1.474,0,0,1-.994-.386c-1.256-1.144-12.274-11.407-12.274-18.778a1.474,1.474,0,1,1,2.948,0c0,5.154,8.167,13.73,11.313,16.6a1.474,1.474,0,0,1-.994,2.562Z" transform="translate(-82.385 -79.436)" fill="#fafafa"/>
        <path id="Path_1347" data-name="Path 1347" d="M86.815,105.972a1.474,1.474,0,0,1-.994-2.562c3.146-2.872,11.313-11.448,11.313-16.6a1.474,1.474,0,1,1,2.948,0c0,7.371-11.018,17.634-12.274,18.778A1.474,1.474,0,0,1,86.815,105.972Z" transform="translate(-82.392 -79.437)" fill="#fafafa"/>
        <path id="Path_1348" data-name="Path 1348" d="M317.831,304.429a1.474,1.474,0,0,1-1.38-.955l-7.465-19.907-7.465,19.907a1.474,1.474,0,0,1-2.76-1.038l8.845-23.587a1.533,1.533,0,0,1,2.76,0l8.845,23.587a1.474,1.474,0,0,1-.861,1.9A1.416,1.416,0,0,1,317.831,304.429Z" transform="translate(-266.235 -245.462)" fill="#fafafa"/>
        <path id="Path_1349" data-name="Path 1349" d="M333.268,408.281H321.474a1.474,1.474,0,1,1,0-2.948h11.793a1.474,1.474,0,1,1,0,2.948Z" transform="translate(-284.62 -355.211)" fill="#fafafa"/>
      </g>
      <g id="Group_89" data-name="Group 89" transform="translate(1.474 5.897)">
        <path id="Path_1350" data-name="Path 1350" d="M320.779,66.253a1.474,1.474,0,0,1-1.474-1.474A19.188,19.188,0,0,0,300.14,45.614a1.474,1.474,0,1,1,0-2.948,22.136,22.136,0,0,1,22.112,22.112A1.474,1.474,0,0,1,320.779,66.253Z" transform="translate(-258.864 -42.666)" fill="#455a64"/>
        <path id="Path_1351" data-name="Path 1351" d="M412.808,158.168a1.474,1.474,0,0,1-1.044-.431l-5.9-5.9a1.474,1.474,0,0,1,2.084-2.085l4.7,4.7,3.4-4.54a1.474,1.474,0,0,1,2.361,1.766l0,0-4.422,5.9a1.474,1.474,0,0,1-1.076.59Z" transform="translate(-350.893 -134.581)" fill="#455a64"/>
        <path id="Path_1352" data-name="Path 1352" d="M64.779,322.253A22.136,22.136,0,0,1,42.667,300.14a1.474,1.474,0,1,1,2.948,0A19.188,19.188,0,0,0,64.779,319.3a1.474,1.474,0,1,1,0,2.948Z" transform="translate(-38.244 -263.286)" fill="#455a64"/>
        <path id="Path_1353" data-name="Path 1353" d="M12.14,307.5a1.474,1.474,0,0,1-1.179-2.359l4.422-5.9a1.475,1.475,0,0,1,2.223-.159l5.9,5.9a1.474,1.474,0,1,1-2.048,2.121l-.036-.036-4.7-4.694-3.4,4.538A1.474,1.474,0,0,1,12.14,307.5Z" transform="translate(-10.666 -263.277)" fill="#455a64"/>
      </g>
    </g>
    <g id="warning" transform="translate(608.879 2698.7)">
      <path id="Path_1354" data-name="Path 1354" d="M28.941,52.807a2.663,2.663,0,0,1-2.33,1.345H2.7a2.691,2.691,0,0,1-2.33-4.036L12.323,29.4a2.691,2.691,0,0,1,4.66,0L28.941,50.116A2.663,2.663,0,0,1,28.941,52.807Z" transform="translate(-0.001 -28.059)" fill="#ffda2d"/>
      <path id="Path_1355" data-name="Path 1355" d="M270.288,52.807a2.663,2.663,0,0,1-2.33,1.345H256V28.059a2.663,2.663,0,0,1,2.33,1.345l11.958,20.712A2.663,2.663,0,0,1,270.288,52.807Z" transform="translate(-241.347 -28.059)" fill="#fdbf00"/>
      <g id="Group_90" data-name="Group 90" transform="translate(12.242 6.262)">
        <path id="Path_1356" data-name="Path 1356" d="M218.7,139.876v6.264a2.411,2.411,0,1,1-4.822,0v-6.264a2.411,2.411,0,1,1,4.822,0Z" transform="translate(-213.879 -137.465)" fill="#fff"/>
        <path id="Path_1357" data-name="Path 1357" d="M218.7,346.552a2.411,2.411,0,1,1-2.411-2.411A2.414,2.414,0,0,1,218.7,346.552Z" transform="translate(-213.879 -332.312)" fill="#fff"/>
      </g>
      <g id="Group_91" data-name="Group 91" transform="translate(14.653 6.262)">
        <path id="Path_1358" data-name="Path 1358" d="M258.411,346.552A2.414,2.414,0,0,1,256,348.963v-4.822A2.414,2.414,0,0,1,258.411,346.552Z" transform="translate(-256 -332.312)" fill="#dce6eb"/>
        <path id="Path_1359" data-name="Path 1359" d="M258.411,139.876v6.264A2.414,2.414,0,0,1,256,148.551V137.465A2.414,2.414,0,0,1,258.411,139.876Z" transform="translate(-256 -137.465)" fill="#dce6eb"/>
      </g>
    </g>
  </g>
</svg>
