<?xml version="1.0" encoding="UTF-8"?>
<svg width="99px" height="22px" viewBox="0 0 99 22" version="1.1" xmlns="http://www.w3.org/2000/svg" xmlns:xlink="http://www.w3.org/1999/xlink">
    <!-- Generator: Sketch 48.2 (47327) - http://www.bohemiancoding.com/sketch -->
    <title>aligner-logo</title>
    <desc>Created with Sketch.</desc>
    <defs></defs>
    <g id="Page-1" stroke="none" stroke-width="1" fill="none" fill-rule="evenodd">
        <g id="aligner-logo" transform="translate(1.000000, 0.000000)" fill-rule="nonzero">
            <path d="M37.443,13.973 L32.161,13.973 L31.287,16.5 L28.494,16.5 L33.263,3.219 L36.36,3.219 L41.129,16.5 L38.317,16.5 L37.443,13.973 Z M36.721,11.845 L34.802,6.297 L32.883,11.845 L36.721,11.845 Z M45.6666,2.44 L45.6666,16.5 L43.0066,16.5 L43.0066,2.44 L45.6666,2.44 Z M49.7387,4.72 C49.27,4.72 48.8773,4.57433 48.5607,4.283 C48.2567,3.979 48.1047,3.60533 48.1047,3.162 C48.1047,2.71867 48.2567,2.35133 48.5607,2.06 C48.8773,1.756 49.27,1.604 49.7387,1.604 C50.2073,1.604 50.5937,1.756 50.8977,2.06 C51.2143,2.35133 51.3727,2.71867 51.3727,3.162 C51.3727,3.60533 51.2143,3.979 50.8977,4.283 C50.5937,4.57433 50.2073,4.72 49.7387,4.72 Z M51.0497,5.974 L51.0497,16.5 L48.3897,16.5 L48.3897,5.974 L51.0497,5.974 Z M57.8958,5.803 C58.6811,5.803 59.3714,5.9613 59.9668,6.278 C60.5621,6.582 61.0308,6.981 61.3728,7.475 L61.3728,5.974 L64.0518,5.974 L64.0518,16.576 C64.0518,17.5513 63.8554,18.419 63.4628,19.179 C63.0701,19.9517 62.4811,20.5597 61.6958,21.003 C60.9104,21.459 59.9604,21.687 58.8458,21.687 C57.3511,21.687 56.1224,21.3387 55.1598,20.642 C54.2098,19.9453 53.6714,18.9953 53.5448,17.792 L56.1858,17.792 C56.3251,18.2733 56.6228,18.6533 57.0788,18.932 C57.5474,19.2233 58.1111,19.369 58.7698,19.369 C59.5424,19.369 60.1694,19.1347 60.6508,18.666 C61.1321,18.21 61.3728,17.5133 61.3728,16.576 L61.3728,14.942 C61.0308,15.436 60.5558,15.8477 59.9478,16.177 C59.3524,16.5063 58.6684,16.671 57.8958,16.671 C57.0091,16.671 56.1984,16.443 55.4638,15.987 C54.7291,15.531 54.1464,14.8913 53.7158,14.068 C53.2978,13.232 53.0888,12.2757 53.0888,11.199 C53.0888,10.135 53.2978,9.1913 53.7158,8.368 C54.1464,7.5447 54.7228,6.9113 55.4448,6.468 C56.1794,6.0247 56.9964,5.803 57.8958,5.803 Z M61.3728,11.237 C61.3728,10.591 61.2461,10.04 60.9928,9.584 C60.7394,9.1153 60.3974,8.7607 59.9668,8.52 C59.5361,8.2667 59.0738,8.14 58.5798,8.14 C58.0858,8.14 57.6298,8.2603 57.2118,8.501 C56.7938,8.7417 56.4518,9.0963 56.1858,9.565 C55.9324,10.021 55.8058,10.5657 55.8058,11.199 C55.8058,11.8323 55.9324,12.3897 56.1858,12.871 C56.4518,13.3397 56.7938,13.7007 57.2118,13.954 C57.6424,14.2073 58.0984,14.334 58.5798,14.334 C59.0738,14.334 59.5361,14.2137 59.9668,13.973 C60.3974,13.7197 60.7394,13.365 60.9928,12.909 C61.2461,12.4403 61.3728,11.883 61.3728,11.237 Z M72.5777,5.822 C73.8317,5.822 74.845,6.221 75.6177,7.019 C76.3904,7.8043 76.7767,8.9063 76.7767,10.325 L76.7767,16.5 L74.1167,16.5 L74.1167,10.686 C74.1167,9.85 73.9077,9.2103 73.4897,8.767 C73.0717,8.311 72.5017,8.083 71.7797,8.083 C71.045,8.083 70.4624,8.311 70.0317,8.767 C69.6137,9.2103 69.4047,9.85 69.4047,10.686 L69.4047,16.5 L66.7447,16.5 L66.7447,5.974 L69.4047,5.974 L69.4047,7.285 C69.7594,6.829 70.209,6.4743 70.7537,6.221 C71.311,5.955 71.919,5.822 72.5777,5.822 Z M89.1862,11.009 C89.1862,11.389 89.1609,11.731 89.1102,12.035 L81.4152,12.035 C81.4786,12.795 81.7446,13.3903 82.2132,13.821 C82.6819,14.2517 83.2582,14.467 83.9422,14.467 C84.9302,14.467 85.6332,14.0427 86.0512,13.194 L88.9202,13.194 C88.6162,14.2073 88.0336,15.0433 87.1722,15.702 C86.3109,16.348 85.2532,16.671 83.9992,16.671 C82.9859,16.671 82.0739,16.4493 81.2632,16.006 C80.4652,15.55 79.8382,14.9103 79.3822,14.087 C78.9389,13.2637 78.7172,12.3137 78.7172,11.237 C78.7172,10.1477 78.9389,9.1913 79.3822,8.368 C79.8256,7.5447 80.4462,6.9113 81.2442,6.468 C82.0422,6.0247 82.9606,5.803 83.9992,5.803 C84.9999,5.803 85.8929,6.0183 86.6782,6.449 C87.4762,6.8797 88.0906,7.494 88.5212,8.292 C88.9646,9.0773 89.1862,9.983 89.1862,11.009 Z M86.4312,10.249 C86.4186,9.565 86.1716,9.0203 85.6902,8.615 C85.2089,8.197 84.6199,7.988 83.9232,7.988 C83.2646,7.988 82.7072,8.1907 82.2512,8.596 C81.8079,8.9887 81.5356,9.5397 81.4342,10.249 L86.4312,10.249 Z M93.8828,7.608 C94.2248,7.0507 94.6681,6.6137 95.2128,6.297 C95.7701,5.9803 96.4035,5.822 97.1128,5.822 L97.1128,8.615 L96.4098,8.615 C95.5738,8.615 94.9405,8.8113 94.5098,9.204 C94.0918,9.5967 93.8828,10.2807 93.8828,11.256 L93.8828,16.5 L91.2228,16.5 L91.2228,5.974 L93.8828,5.974 L93.8828,7.608 Z" id="Shape" fill="#1B2537"></path>
            <polygon id="Shape" stroke="#24695C" fill="#205F53" points="16 3.5 6 3.5 0 21 9 21"></polygon>
            <polygon id="Shape" stroke="#24695C" fill="#24695C" points="20 0.5 10 0.5 4 18 13 18"></polygon>
        </g>
    </g>
</svg>