<svg xmlns="http://www.w3.org/2000/svg" width="728.824" height="726.344" viewBox="0 0 728.824 726.344">
  <g id="Flags_Illustration" data-name="Flags Illustration" transform="translate(9.673 -873.86)">
    <path id="Oval_curve_grey" data-name="Oval curve grey" d="M198.56.112c112.612-3.067,211.6,57.343,209.324,140.819-1.3,47.581-45.693,153.858-106.045,131.191S210.284,224.822,160.252,253C43.9,318.52-2.2,235.513.08,152.037S85.948,3.179,198.56.112Z" transform="translate(336.636 1411.459) rotate(-109)" fill="#f1f1f1"/>
    <path id="Oval_curve_green" data-name="Oval curve green" d="M263.825,464.12c155.936-5.255,297.782-118.165,300.936-261.2,1.8-81.528-50.565-149.443-135.974-104.909S297.077,77.42,229.824,33.744C73.423-67.827,3.22,78.919.066,221.953S107.888,469.375,263.825,464.12Z" transform="matrix(0.719, 0.695, -0.695, 0.719, 312.864, 873.86)" fill="#f2fff8"/>
    <g id="Ellipse_Flag_Round" data-name="Ellipse Flag Round" transform="translate(175.824 1032.477)" fill="none" stroke="#92dec6" stroke-width="9">
      <ellipse cx="191.106" cy="180.958" rx="191.106" ry="180.958" stroke="none"/>
      <ellipse cx="191.106" cy="180.958" rx="186.606" ry="176.458" fill="none"/>
    </g>
    <text id="A" transform="translate(314.264 1254.669)" fill="#37c699" stroke="#92dec6" stroke-width="1" font-size="130" font-family="Nunito-Black, Nunito" font-weight="800"><tspan x="0" y="0">A</tspan></text>
    <g id="Icons_Arrrow" data-name="Icons Arrrow" transform="translate(156.366 1023.197)">
      <path id="iconmonstr-arrow-25" d="M0,5.817,5.927,0,29.085,23.268,5.927,46.535,0,40.718,17.451,23.268Z" transform="matrix(0.906, 0.423, -0.423, 0.906, 282.099, 0)" fill="#92dec6"/>
      <path id="iconmonstr-arrow-25-2" data-name="iconmonstr-arrow-25" d="M0,5.817,5.927,0,29.085,23.268,5.927,46.535,0,40.718,17.451,23.268Z" transform="translate(309.217 365.188) rotate(156)" fill="#92dec6"/>
      <path id="iconmonstr-arrow-25-3" data-name="iconmonstr-arrow-25" d="M0,5.817,5.927,0,29.085,23.268,5.927,46.535,0,40.718,17.451,23.268Z" transform="translate(0 191.279) rotate(-88)" fill="#92dec6"/>
    </g>
    <g id="united-kingdom" transform="translate(312.307 976.822)">
      <g id="file" transform="translate(0 0)">
        <path id="Path_1334" data-name="Path 1334" d="M70.208,23.286,49.991,5H11V74.225H70.208Z" transform="translate(-11 -5)" fill="#edeada"/>
        <g id="Group_87" data-name="Group 87" transform="translate(10.109 14.367)">
          <path id="Path_1336" data-name="Path 1336" d="M19.444,26.612h36.1a1.313,1.313,0,1,0,0-2.612h-36.1a1.313,1.313,0,1,0,0,2.612Z" transform="translate(-18 -13.551)" fill="#cec9ae"/>
          <path id="Path_1337" data-name="Path 1337" d="M19.444,18.612H33.885a1.313,1.313,0,1,0,0-2.612H19.444a1.313,1.313,0,1,0,0,2.612Z" transform="translate(-18 -16)" fill="#cec9ae"/>
          <path id="Path_1338" data-name="Path 1338" d="M55.547,32h-36.1a1.313,1.313,0,1,0,0,2.612h36.1a1.313,1.313,0,1,0,0-2.612Z" transform="translate(-18 -11.102)" fill="#cec9ae"/>
          <path id="Path_1339" data-name="Path 1339" d="M55.547,40h-36.1a1.313,1.313,0,1,0,0,2.612h36.1a1.313,1.313,0,1,0,0-2.612Z" transform="translate(-18 -8.653)" fill="#cec9ae"/>
          <path id="Path_1340" data-name="Path 1340" d="M55.547,48h-36.1a1.313,1.313,0,1,0,0,2.612h36.1a1.313,1.313,0,1,0,0-2.612Z" transform="translate(-18 -6.204)" fill="#cec9ae"/>
        </g>
        <path id="Path_1341" data-name="Path 1341" d="M38,5V23.286H58.218Z" transform="translate(0.991 -5)" fill="#cec9ae"/>
      </g>
      <ellipse id="Ellipse_5" data-name="Ellipse 5" cx="32.34" cy="32.218" rx="32.34" ry="32.218" transform="translate(17.757 24.564)" fill="#f0f0f0"/>
      <g id="Group_3" data-name="Group 3" transform="translate(18.871 25.673)">
        <path id="Path_879" data-name="Path 879" d="M14.39,100.142a32.053,32.053,0,0,0-5.571,11.211H25.643Z" transform="translate(-8.819 -88.649)" fill="#0052b4"/>
        <path id="Path_880" data-name="Path 880" d="M386.829,111.353a32.056,32.056,0,0,0-5.571-11.21l-11.253,11.21Z" transform="translate(-324.378 -88.65)" fill="#0052b4"/>
        <path id="Path_881" data-name="Path 881" d="M8.819,322.784a32.056,32.056,0,0,0,5.571,11.21l11.252-11.21Z" transform="translate(-8.819 -283.271)" fill="#0052b4"/>
        <path id="Path_882" data-name="Path 882" d="M334.035,14.369a32.273,32.273,0,0,0-11.253-5.55V25.58Z" transform="translate(-283.12 -8.819)" fill="#0052b4"/>
        <path id="Path_883" data-name="Path 883" d="M100.142,381.215a32.273,32.273,0,0,0,11.253,5.55v-16.76Z" transform="translate(-88.605 -324.549)" fill="#0052b4"/>
        <path id="Path_884" data-name="Path 884" d="M111.395,8.819a32.273,32.273,0,0,0-11.253,5.55l11.253,11.21Z" transform="translate(-88.605 -8.819)" fill="#0052b4"/>
        <path id="Path_885" data-name="Path 885" d="M322.783,386.766a32.274,32.274,0,0,0,11.253-5.55l-11.253-11.21Z" transform="translate(-283.121 -324.549)" fill="#0052b4"/>
        <path id="Path_886" data-name="Path 886" d="M370.005,322.784l11.253,11.21a32.055,32.055,0,0,0,5.571-11.21Z" transform="translate(-324.378 -283.271)" fill="#0052b4"/>
      </g>
      <g id="Group_4" data-name="Group 4" transform="translate(17.757 24.564)">
        <path id="Path_887" data-name="Path 887" d="M64.406,28.016H36.558V.273a32.759,32.759,0,0,0-8.436,0V28.016H.274a32.393,32.393,0,0,0,0,8.4H28.121V64.164a32.759,32.759,0,0,0,8.436,0V36.421H64.406a32.393,32.393,0,0,0,0-8.4Z" fill="#d80027"/>
        <path id="Path_888" data-name="Path 888" d="M322.783,322.783h0l14.431,14.377q1-.991,1.9-2.068L326.76,322.783h-3.977Z" transform="translate(-282.007 -282.16)" fill="#d80027"/>
        <path id="Path_889" data-name="Path 889" d="M89.411,322.784h0L74.98,337.161q1,.992,2.076,1.894l12.355-12.309Z" transform="translate(-65.508 -282.161)" fill="#d80027"/>
        <path id="Path_890" data-name="Path 890" d="M76.265,89.357h0L61.834,74.98q-1,.991-1.9,2.068L72.288,89.357h3.977Z" transform="translate(-52.362 -65.544)" fill="#d80027"/>
        <path id="Path_891" data-name="Path 891" d="M322.783,76.2h0l14.431-14.377q-1-.992-2.076-1.894L322.783,72.243Z" transform="translate(-282.007 -52.391)" fill="#d80027"/>
      </g>
    </g>
    <g id="germany" transform="translate(476.967 1060.961)">
      <g id="file-2" data-name="file" transform="translate(0 0)">
        <path id="Path_1334-2" data-name="Path 1334" d="M70.208,22.085,49.991,5H11V69.679H70.208Z" transform="translate(-11 -5)" fill="#edeada"/>
        <g id="Group_87-2" data-name="Group 87" transform="translate(10.109 13.424)">
          <path id="Path_1336-2" data-name="Path 1336" d="M19.444,26.441h36.1a1.238,1.238,0,1,0,0-2.441h-36.1a1.238,1.238,0,1,0,0,2.441Z" transform="translate(-18 -14.237)" fill="#cec9ae"/>
          <path id="Path_1337-2" data-name="Path 1337" d="M19.444,18.441H33.885a1.346,1.346,0,0,0,1.444-1.22A1.346,1.346,0,0,0,33.885,16H19.444A1.346,1.346,0,0,0,18,17.22,1.346,1.346,0,0,0,19.444,18.441Z" transform="translate(-18 -16)" fill="#cec9ae"/>
          <path id="Path_1338-2" data-name="Path 1338" d="M55.547,32h-36.1a1.238,1.238,0,1,0,0,2.441h36.1a1.238,1.238,0,1,0,0-2.441Z" transform="translate(-18 -12.474)" fill="#cec9ae"/>
          <path id="Path_1339-2" data-name="Path 1339" d="M55.547,40h-36.1a1.238,1.238,0,1,0,0,2.441h36.1a1.238,1.238,0,1,0,0-2.441Z" transform="translate(-18 -10.711)" fill="#cec9ae"/>
          <path id="Path_1340-2" data-name="Path 1340" d="M55.547,48h-36.1a1.238,1.238,0,1,0,0,2.441h36.1a1.238,1.238,0,1,0,0-2.441Z" transform="translate(-18 -8.949)" fill="#cec9ae"/>
        </g>
        <path id="Path_1341-2" data-name="Path 1341" d="M38,5V22.085H58.218Z" transform="translate(0.991 -5)" fill="#cec9ae"/>
      </g>
      <path id="Path_892" data-name="Path 892" d="M15.923,325.4a30.746,30.746,0,0,0,57.334,0L44.59,322.783Z" transform="translate(-2.171 -261.938)" fill="#ffda44"/>
      <path id="Path_893" data-name="Path 893" d="M44.59,0A30.562,30.562,0,0,0,15.923,19.632L44.59,22.25l28.667-2.618A30.562,30.562,0,0,0,44.59,0Z" transform="translate(-2.171 22.889)"/>
      <path id="Path_894" data-name="Path 894" d="M1.9,166.957a29.78,29.78,0,0,0,0,20.941H59.236a29.781,29.781,0,0,0,0-20.941Z" transform="translate(11.851 -124.436)" fill="#d80027"/>
    </g>
    <g id="france" transform="translate(315.926 1324.235)">
      <g id="file-3" data-name="file" transform="translate(0 0)">
        <path id="Path_1334-3" data-name="Path 1334" d="M70.208,22.5,49.991,5H11V71.24H70.208Z" transform="translate(-11 -5)" fill="#edeada"/>
        <g id="Group_87-3" data-name="Group 87" transform="translate(10.109 13.748)">
          <path id="Path_1336-3" data-name="Path 1336" d="M19.444,26.5h36.1a1.263,1.263,0,1,0,0-2.5h-36.1a1.263,1.263,0,1,0,0,2.5Z" transform="translate(-18 -14.002)" fill="#cec9ae"/>
          <path id="Path_1337-3" data-name="Path 1337" d="M19.444,18.5H33.885a1.357,1.357,0,0,0,1.444-1.25A1.357,1.357,0,0,0,33.885,16H19.444A1.357,1.357,0,0,0,18,17.25,1.357,1.357,0,0,0,19.444,18.5Z" transform="translate(-18 -16)" fill="#cec9ae"/>
          <path id="Path_1338-3" data-name="Path 1338" d="M55.547,32h-36.1a1.263,1.263,0,1,0,0,2.5h36.1a1.263,1.263,0,1,0,0-2.5Z" transform="translate(-18 -12.003)" fill="#cec9ae"/>
          <path id="Path_1339-3" data-name="Path 1339" d="M55.547,40h-36.1a1.263,1.263,0,1,0,0,2.5h36.1a1.263,1.263,0,1,0,0-2.5Z" transform="translate(-18 -10.005)" fill="#cec9ae"/>
          <path id="Path_1340-3" data-name="Path 1340" d="M55.547,48h-36.1a1.263,1.263,0,1,0,0,2.5h36.1a1.263,1.263,0,1,0,0-2.5Z" transform="translate(-18 -8.006)" fill="#cec9ae"/>
        </g>
        <path id="Path_1341-3" data-name="Path 1341" d="M38,5V22.5H58.218Z" transform="translate(0.991 -5)" fill="#cec9ae"/>
      </g>
      <ellipse id="Ellipse_6" data-name="Ellipse 6" cx="30.206" cy="30.829" rx="30.206" ry="30.829" transform="translate(14.138 23.723)" fill="#f0f0f0"/>
      <path id="Path_895" data-name="Path 895" d="M364.742,44.834a30.818,30.818,0,0,0-19.7-28.911V73.746A30.818,30.818,0,0,0,364.742,44.834Z" transform="translate(-290.193 9.718)" fill="#d80027"/>
      <path id="Path_896" data-name="Path 896" d="M0,44.834A30.818,30.818,0,0,0,19.7,73.746V15.923A30.818,30.818,0,0,0,0,44.834Z" transform="translate(14.138 9.718)" fill="#0052b4"/>
    </g>
    <g id="italy" transform="translate(477.871 1245.525)">
      <g id="file-4" data-name="file" transform="translate(0 0)">
        <path id="Path_1334-4" data-name="Path 1334" d="M70.208,21.907,49.991,5H11V69H70.208Z" transform="translate(-11 -5)" fill="#edeada"/>
        <g id="Group_87-4" data-name="Group 87" transform="translate(10.109 13.284)">
          <path id="Path_1336-4" data-name="Path 1336" d="M19.444,26.415h36.1a1.342,1.342,0,0,0,1.444-1.208A1.342,1.342,0,0,0,55.547,24h-36.1A1.342,1.342,0,0,0,18,25.208,1.342,1.342,0,0,0,19.444,26.415Z" transform="translate(-18 -14.339)" fill="#cec9ae"/>
          <path id="Path_1337-4" data-name="Path 1337" d="M19.444,18.415H33.885a1.342,1.342,0,0,0,1.444-1.208A1.342,1.342,0,0,0,33.885,16H19.444A1.342,1.342,0,0,0,18,17.208,1.342,1.342,0,0,0,19.444,18.415Z" transform="translate(-18 -16)" fill="#cec9ae"/>
          <path id="Path_1338-4" data-name="Path 1338" d="M55.547,32h-36.1a1.227,1.227,0,1,0,0,2.415h36.1a1.227,1.227,0,1,0,0-2.415Z" transform="translate(-18 -12.678)" fill="#cec9ae"/>
          <path id="Path_1339-4" data-name="Path 1339" d="M55.547,40h-36.1a1.227,1.227,0,1,0,0,2.415h36.1a1.227,1.227,0,1,0,0-2.415Z" transform="translate(-18 -11.017)" fill="#cec9ae"/>
          <path id="Path_1340-4" data-name="Path 1340" d="M55.547,48h-36.1a1.227,1.227,0,1,0,0,2.415h36.1a1.227,1.227,0,1,0,0-2.415Z" transform="translate(-18 -9.357)" fill="#cec9ae"/>
        </g>
        <path id="Path_1341-4" data-name="Path 1341" d="M38,5V21.907H58.218Z" transform="translate(0.991 -5)" fill="#cec9ae"/>
      </g>
      <ellipse id="Ellipse_7" data-name="Ellipse 7" cx="29.967" cy="29.788" rx="29.967" ry="29.788" transform="translate(10.946 22.614)" fill="#f0f0f0"/>
      <path id="Path_897" data-name="Path 897" d="M364.587,43.858a29.807,29.807,0,0,0-19.544-27.935v55.87A29.807,29.807,0,0,0,364.587,43.858Z" transform="translate(-293.706 8.543)" fill="#d80027"/>
      <path id="Path_898" data-name="Path 898" d="M0,43.858A29.807,29.807,0,0,0,19.544,71.793V15.923A29.807,29.807,0,0,0,0,43.858Z" transform="translate(10.946 8.543)" fill="#6da544"/>
    </g>
    <g id="sweden" transform="translate(154.885 1246.429)">
      <g id="file-5" data-name="file" transform="translate(0 0)">
        <path id="Path_1334-5" data-name="Path 1334" d="M70.208,23.045,49.991,5H11V73.313H70.208Z" transform="translate(-11 -5)" fill="#edeada"/>
        <g id="Group_87-5" data-name="Group 87" transform="translate(10.109 14.178)">
          <path id="Path_1336-5" data-name="Path 1336" d="M19.444,26.578h36.1a1.3,1.3,0,1,0,0-2.578h-36.1a1.3,1.3,0,1,0,0,2.578Z" transform="translate(-18 -13.689)" fill="#cec9ae"/>
          <path id="Path_1337-5" data-name="Path 1337" d="M19.444,18.578H33.885a1.3,1.3,0,1,0,0-2.578H19.444a1.3,1.3,0,1,0,0,2.578Z" transform="translate(-18 -16)" fill="#cec9ae"/>
          <path id="Path_1338-5" data-name="Path 1338" d="M55.547,32h-36.1a1.3,1.3,0,1,0,0,2.578h36.1a1.3,1.3,0,1,0,0-2.578Z" transform="translate(-18 -11.377)" fill="#cec9ae"/>
          <path id="Path_1339-5" data-name="Path 1339" d="M55.547,40h-36.1a1.3,1.3,0,1,0,0,2.578h36.1a1.3,1.3,0,1,0,0-2.578Z" transform="translate(-18 -9.066)" fill="#cec9ae"/>
          <path id="Path_1340-5" data-name="Path 1340" d="M55.547,48h-36.1a1.3,1.3,0,1,0,0,2.578h36.1a1.3,1.3,0,1,0,0-2.578Z" transform="translate(-18 -6.755)" fill="#cec9ae"/>
        </g>
        <path id="Path_1341-5" data-name="Path 1341" d="M38,5V23.045H58.218Z" transform="translate(0.991 -5)" fill="#cec9ae"/>
      </g>
      <ellipse id="Ellipse_8" data-name="Ellipse 8" cx="31.722" cy="31.793" rx="31.722" ry="31.793" transform="translate(15.673 23.329)" fill="#ffda44"/>
      <g id="Group_5" data-name="Group 5" transform="translate(15.941 23.329)">
        <path id="Path_899" data-name="Path 899" d="M200.348,27.647H238.7A31.729,31.729,0,0,0,200.348.756V27.647Z" transform="translate(-175.791)" fill="#0052b4"/>
        <path id="Path_900" data-name="Path 900" d="M18.449,54.908V31.127A31.813,31.813,0,0,0,2.167,54.908H18.449Z" transform="translate(-2.167 -27.261)" fill="#0052b4"/>
        <path id="Path_901" data-name="Path 901" d="M18.449,289.391H2.167a31.812,31.812,0,0,0,16.282,23.781V289.391Z" transform="translate(-2.167 -253.451)" fill="#0052b4"/>
        <path id="Path_902" data-name="Path 902" d="M200.348,289.391v26.891A31.729,31.729,0,0,0,238.7,289.391H200.348Z" transform="translate(-175.791 -253.451)" fill="#0052b4"/>
      </g>
    </g>
    <g id="estonia" transform="translate(154.885 1060.961)">
      <g id="file-6" data-name="file" transform="translate(0 0)">
        <path id="Path_1334-6" data-name="Path 1334" d="M70.208,22.871,49.991,5H11V72.654H70.208Z" transform="translate(-11 -5)" fill="#edeada"/>
        <g id="Group_87-6" data-name="Group 87" transform="translate(10.109 14.041)">
          <path id="Path_1336-6" data-name="Path 1336" d="M19.444,26.553h36.1a1.286,1.286,0,1,0,0-2.553h-36.1a1.286,1.286,0,1,0,0,2.553Z" transform="translate(-18 -13.788)" fill="#cec9ae"/>
          <path id="Path_1337-6" data-name="Path 1337" d="M19.444,18.553H33.885a1.368,1.368,0,0,0,1.444-1.276A1.368,1.368,0,0,0,33.885,16H19.444A1.368,1.368,0,0,0,18,17.276,1.368,1.368,0,0,0,19.444,18.553Z" transform="translate(-18 -16)" fill="#cec9ae"/>
          <path id="Path_1338-6" data-name="Path 1338" d="M55.547,32h-36.1a1.286,1.286,0,1,0,0,2.553h36.1a1.286,1.286,0,1,0,0-2.553Z" transform="translate(-18 -11.576)" fill="#cec9ae"/>
          <path id="Path_1339-6" data-name="Path 1339" d="M55.547,40h-36.1a1.286,1.286,0,1,0,0,2.553h36.1a1.286,1.286,0,1,0,0-2.553Z" transform="translate(-18 -9.364)" fill="#cec9ae"/>
          <path id="Path_1340-6" data-name="Path 1340" d="M55.547,48h-36.1a1.286,1.286,0,1,0,0,2.553h36.1a1.286,1.286,0,1,0,0-2.553Z" transform="translate(-18 -7.152)" fill="#cec9ae"/>
        </g>
        <path id="Path_1341-6" data-name="Path 1341" d="M38,5V22.871H58.218Z" transform="translate(0.991 -5)" fill="#cec9ae"/>
      </g>
      <path id="Path_903" data-name="Path 903" d="M0,168.147A32.51,32.51,0,0,0,1.885,179.1l28.424,1.369L58.733,179.1a32.755,32.755,0,0,0,0-21.9l-28.424-1.369L1.885,157.195A32.511,32.511,0,0,0,0,168.147Z" transform="translate(15.673 -112.718)"/>
      <path id="Path_904" data-name="Path 904" d="M44.347,0C31.315,0,20.205,8.545,15.923,20.535H72.771C68.489,8.545,57.379,0,44.347,0Z" transform="translate(1.635 23.942)" fill="#0052b4"/>
      <path id="Path_905" data-name="Path 905" d="M72.771,345.043H15.923c4.282,11.99,15.392,20.535,28.424,20.535S68.489,357.033,72.771,345.043Z" transform="translate(1.635 -278.662)" fill="#f0f0f0"/>
    </g>
  </g>
</svg>
