<?xml version="1.0" encoding="UTF-8"?>
<svg width="16px" height="16px" viewBox="0 0 16 16" version="1.1" xmlns="http://www.w3.org/2000/svg" xmlns:xlink="http://www.w3.org/1999/xlink">
    <!-- Generator: Sketch 48.2 (47327) - http://www.bohemiancoding.com/sketch -->
    <title>earth-globe_icon-icons.com_70179</title>
    <desc>Created with Sketch.</desc>
    <defs></defs>
    <g id="Page-1" stroke="none" stroke-width="1" fill="none" fill-rule="evenodd">
        <g id="earth-globe_icon-icons.com_70179" fill="#376332" fill-rule="nonzero">
            <path d="M8,0 C3.6,0 0,3.6 0,8 C0,12.4 3.6,16 8,16 C12.4,16 16,12.4 16,8 C16,3.6 12.4,0 8,0 Z M13.2,5.3 C13.6,5.3 13.9,5.6 14.3,5.6 C14,6 12.7,6 12.3,5.5 C12.6,5.4 12.8,5.3 13.2,5.3 Z M1,8 C1,7.6 1,7.2 1.1,6.7 C1.2,6.7 1.3,6.8 1.4,6.8 C1.4,6.8 1.5,6.9 1.5,7 C1.5,7.3 1.8,7.5 2,7.5 C2.8,7.6 3.1,8.3 3.8,8.5 C4,8.6 3.9,8.8 3.8,9 C3.2,9.8 3.7,10.4 4.2,10.9 C4.7,11.3 4.7,11.7 4.8,12.3 C4.8,13 4.9,13.8 5.2,14.5 C2.7,13.3 1,10.9 1,8 Z M8,15 C7.3,15 6.5,14.9 5.9,14.7 C5.8,14.5 5.8,14.3 5.9,14.1 C6.3,13.3 6.7,12.6 7.2,11.9 C7.4,11.7 7.6,11.5 7.6,11.2 C7.6,11 7.7,10.7 7.8,10.5 C8.1,10 8,9.7 7.6,9.6 C6.8,9.4 6.4,8.7 5.8,8.4 C5.2,8.1 4.6,7.9 4.1,8.2 C3.9,8.3 3.6,8.4 3.6,8.1 C3.6,7.7 3.1,7.4 3.2,7 C3.1,7 3,7 2.9,7.1 C2.8,7.2 2.7,7.3 2.5,7.2 C2.3,7 2.4,6.8 2.4,6.6 C2.5,6.4 2.6,6.3 2.8,6.2 C3.2,6.1 3.6,6.1 3.8,6.6 C4.1,5.7 4.7,5.2 5.3,4.8 C5.3,4.8 6.1,4.1 6.2,4.1 C6.3,4.1 6.4,4.3 6.6,4.4 C6.8,4.4 6.9,4.4 6.9,4.2 C7,3.7 6.7,3.1 6.3,3 C6.3,2.9 6.4,2.9 6.4,2.9 C6.7,2.8 7.1,2.6 7,2.3 C7,1.9 6.6,1.7 6.2,1.7 C6,1.7 5.8,1.7 5.6,1.8 C5.2,2 4.7,2.2 4.1,2.2 C5.2,1.4 6.6,1 8,1 C8.3,1 8.5,1 8.8,1 C8.2,1.1 7.6,1.3 7.2,1.5 C7.8,1.6 7.9,1.9 7.7,2.4 C7.6,2.6 7.7,2.8 7.9,2.9 C8.1,3 8.3,3 8.4,2.8 C8.6,2.5 9,2.4 9.3,2.3 C9.7,2.2 10,2 10.3,1.6 C10.3,1.5 10.4,1.5 10.5,1.4 C11.1,1.6 11.7,2 12.3,2.4 C12.2,2.4 12.2,2.5 12.1,2.5 C11.9,2.7 11.6,2.8 11.9,3.2 C12,3.4 11.9,3.5 11.8,3.6 C11.6,3.7 11.5,3.6 11.4,3.5 C11.3,3.4 11.3,3.2 11,3.2 C10.9,3.4 10.6,3.5 10.6,3.8 C11.1,3.8 11,4.2 11.1,4.5 C10.5,4.6 10.3,4.9 10.6,5.4 C10.7,5.6 10.5,5.7 10.4,5.8 C10,6.4 9.6,6.8 9.6,7.5 C9.6,8.2 10.1,8.9 10.9,8.8 C11.8,8.7 11.8,8.7 12.1,9.5 C12.1,9.6 12.2,9.7 12.2,9.8 C12.3,10 12.4,10.2 12.3,10.4 C12,11.2 12.4,11.8 12.7,12.4 C12.8,12.6 12.9,12.7 13,12.8 C11.7,14.2 10,15 8,15 Z" id="Shape"></path>
        </g>
    </g>
</svg>