<svg xmlns="http://www.w3.org/2000/svg" width="57.782" height="65.178" viewBox="0 0 57.782 65.178">
  <g id="Icon_Reload" data-name="Icon Reload" transform="translate(-29.049 0)">
    <path id="Path_907" data-name="Path 907" d="M122.529,10.16,111.227.636a2.715,2.715,0,1,0-3.492,4.159l5.6,4.762H86.5A15.431,15.431,0,0,0,71.083,24.97v4.873a2.714,2.714,0,1,0,5.429,0V24.922A10,10,0,0,1,86.5,14.938h26.858l-5.6,4.762a2.715,2.715,0,0,0,3.492,4.159l11.3-9.524a2.715,2.715,0,0,0,.335-3.824,2.773,2.773,0,0,0-.335-.335Z" transform="translate(-36.683)" fill="#37c699"/>
    <path id="Path_908" data-name="Path 908" d="M78.687,255.877a2.715,2.715,0,0,0-2.714,2.714v4.921a10,10,0,0,1-9.984,9.984H39.131l5.6-4.762a2.715,2.715,0,0,0-2.626-4.753,2.683,2.683,0,0,0-.787.657l-11.3,9.524a2.715,2.715,0,0,0-.335,3.824,2.774,2.774,0,0,0,.335.335l11.3,9.524a2.715,2.715,0,0,0,3.492-4.159l-5.6-4.762H65.988A15.431,15.431,0,0,0,81.4,263.512v-4.921A2.714,2.714,0,0,0,78.687,255.877Z" transform="translate(0 -223.304)" fill="#37c699"/>
  </g>
</svg>
