<svg xmlns="http://www.w3.org/2000/svg" width="49.247" height="65.18" viewBox="0 0 49.247 65.18">
  <g id="roboto-logo" transform="translate(-52.57)">
    <path id="Robo.to" d="M82.762,26.02a2.345,2.345,0,1,1,2.347,2.366A2.355,2.355,0,0,1,82.762,26.02Zm-7.3-20.15h-.019V9.112H78.42V5.965a3.131,3.131,0,1,0-2.957-.095ZM68.951,28.385A2.366,2.366,0,1,0,66.6,26.019,2.356,2.356,0,0,0,68.951,28.385ZM77.027,65.18a8.167,8.167,0,0,0,7.67-5.432H69.356A8.167,8.167,0,0,0,77.027,65.18ZM52.57,55.57a3.146,3.146,0,0,1,1.777-2.833V39.326a4.972,4.972,0,0,1,4.624-4.976V27.86S59.6,16.032,69.356,12.353a24.674,24.674,0,0,1,7.837-1.617,24.658,24.658,0,0,1,7.836,1.616c9.759,3.679,10.388,15.507,10.388,15.507v6.489a4.974,4.974,0,0,1,4.623,4.977V52.737a3.127,3.127,0,1,1-2.7,0V43.772a4.908,4.908,0,0,1-1.919.528v3.116c.018.252.038.5.038.76,0,.273-.018.543-.038.813v.072h0a10.83,10.83,0,0,1-9.549,9.917l0,.071H68.516l.006-.071a10.829,10.829,0,0,1-9.548-9.917h0v-.072c-.019-.27-.038-.54-.038-.813,0-.257.019-.508.038-.76V44.3a4.9,4.9,0,0,1-1.921-.528v8.967A3.142,3.142,0,1,1,52.57,55.57ZM82.413,39.075a1.506,1.506,0,1,0-1.505,1.519A1.512,1.512,0,0,0,82.413,39.075Zm3.706,0a1.506,1.506,0,1,0-1.505,1.519A1.512,1.512,0,0,0,86.119,39.075Zm3.707,0a1.506,1.506,0,1,0-1.505,1.519A1.512,1.512,0,0,0,89.826,39.075ZM64.52,26.458c0,4.03,3.128,4.293,3.128,4.293a12.636,12.636,0,0,0,4.43,0c.958-.163,4.473-.469,5.032-.519.021,0,.055.006.083.007s.063,0,.083-.007c.56.049,4.074.356,5.033.519a12.64,12.64,0,0,0,4.43,0s3.127-.263,3.127-4.293c0,0,0-4.468-3.127-7.184-3.033-2.634-7.591-3.206-9.38-3.239v0l-.083,0-.083,0-.083,0-.083,0v0c-1.787.034-6.346.605-9.379,3.239C64.52,21.99,64.52,26.458,64.52,26.458Z" fill="#3498db"/>
  </g>
</svg>
