<svg xmlns="http://www.w3.org/2000/svg" xmlns:xlink="http://www.w3.org/1999/xlink" width="807.827" height="819.841" viewBox="0 0 807.827 819.841">
  <defs>
    <filter id="Background" x="70.425" y="69.029" width="646.758" height="750.812" filterUnits="userSpaceOnUse">
      <feOffset dy="30" input="SourceAlpha"/>
      <feGaussianBlur stdDeviation="40" result="blur"/>
      <feFlood flood-color="#e1e1e1" flood-opacity="0.631"/>
      <feComposite operator="in" in2="blur"/>
      <feComposite in="SourceGraphic"/>
    </filter>
    <filter id="Rectangle_59" x="190.605" y="231.597" width="467.684" height="290.361" filterUnits="userSpaceOnUse">
      <feOffset dy="15" input="SourceAlpha"/>
      <feGaussianBlur stdDeviation="30" result="blur-2"/>
      <feFlood flood-opacity="0.188"/>
      <feComposite operator="in" in2="blur-2"/>
      <feComposite in="SourceGraphic"/>
    </filter>
  </defs>
  <g id="Illustration" transform="translate(38.794 -3013.115)">
    <path id="Oval_curve_grey" data-name="Oval curve grey" d="M112.521,188.093c63.816,2.086,119.912-39.009,118.621-95.8C230.407,59.928,205.249-12.37,171.049,3.05S119.165,35.227,90.813,16.06C24.877-28.514-1.245,27.954.045,84.741S48.706,186.006,112.521,188.093Z" transform="matrix(0.829, -0.559, 0.559, 0.829, 29.566, 3502.095)" fill="#f1f1f1"/>
    <path id="Oval_curve_green" data-name="Oval curve green" d="M281.791,495.753c132.717,147.879,318.078-126.218,321.447-279C605.158,129.668,549.227,57.124,458,104.694s-140.687-22-212.523-68.65C78.413-72.449,3.424,84.3.055,237.08S149.074,347.874,281.791,495.753Z" transform="matrix(-0.719, -0.695, 0.695, -0.719, 395.174, 3819.335)" fill="#fef0d0"/>
    <g transform="matrix(1, 0, 0, 1, -38.79, 3013.11)" filter="url(#Background)">
      <rect id="Background-2" data-name="Background" width="406.758" height="510.812" rx="10" transform="translate(190.42 159.03)" fill="#fff"/>
    </g>
    <g id="Collab_1" data-name="Collab 1" transform="translate(185.055 3208.09)">
      <g id="Avatar" transform="translate(44.144)">
        <circle id="Ellipse_14" data-name="Ellipse 14" cx="39.73" cy="39.73" r="39.73" fill="#f0f0f0"/>
        <g id="boy" transform="translate(18.288 10.09)">
          <path id="Path_927" data-name="Path 927" d="M74.591,126.264v12.855H74.36a3.51,3.51,0,0,0,0,7.021H74.6a12.945,12.945,0,0,0,12.923,12.619h2.568v.765c0,1.167-.015,1.133-1.129,1.29a5.38,5.38,0,0,0-4.623,5.327v5.144h16.352V166.14a5.38,5.38,0,0,0-4.623-5.327c-1.114-.157-1.129-.123-1.129-1.29v-.765h2.546a12.947,12.947,0,0,0,12.928-12.965V126.264Z" transform="translate(-70.86 -111.527)" fill="#f3d1bb"/>
          <path id="Path_928" data-name="Path 928" d="M202.669,426.17v5.144H186.318V426.17a5.385,5.385,0,0,1,4.623-5.327,2.857,2.857,0,0,0,.888-.19l.208.046.525.3a3.905,3.905,0,0,0,3.83.013l.557-.31.208-.046a2.858,2.858,0,0,0,.888.19,5.38,5.38,0,0,1,4.623,5.327Z" transform="translate(-172.843 -371.557)" fill="#32b2ac"/>
          <path id="Path_929" data-name="Path 929" d="M273.454,139.119h-.17V126.264h-5.108v19.529a12.941,12.941,0,0,1-12.919,12.965h5.108a12.94,12.94,0,0,0,12.914-12.618h.175a3.5,3.5,0,0,0,3.5-3.51h0A3.5,3.5,0,0,0,273.454,139.119Z" transform="translate(-233.736 -111.527)" fill="#ecc19c"/>
          <g id="Group_9" data-name="Group 9" transform="translate(9.231 35.846)">
            <circle id="Ellipse_15" data-name="Ellipse 15" cx="1.932" cy="1.932" r="1.932" fill="#e8979f"/>
            <circle id="Ellipse_16" data-name="Ellipse 16" cx="1.932" cy="1.932" r="1.932" transform="translate(20.978)" fill="#e8979f"/>
          </g>
          <path id="Path_930" data-name="Path 930" d="M131.758,5.806a32.878,32.878,0,0,1-10.53-5.67.6.6,0,0,0-.76,0A32.553,32.553,0,0,1,110.06,5.678a10.043,10.043,0,0,0-7.043,9.576v10.2h3.464a.6.6,0,0,0,.571-.409l1.5-4.435a4.307,4.307,0,0,1,4.1-2.924l16.549.1a4.307,4.307,0,0,1,4.054,2.924l1.516,4.47a.6.6,0,0,0,.571.409h3.464v-10.2A10.052,10.052,0,0,0,131.758,5.806Z" transform="translate(-99.264 0)" fill="#931632"/>
          <path id="Path_931" data-name="Path 931" d="M254.025,15.391v10.2h-3.464a.6.6,0,0,1-.571-.409l-1.12-3.305a.6.6,0,0,1-.032-.194V15.391a10.061,10.061,0,0,0-7.066-9.585,32.891,32.891,0,0,1-8.319-4.04C234.5,1.073,235.26.484,235.68.141a.6.6,0,0,1,.762,0A32.87,32.87,0,0,0,246.96,5.807,10.06,10.06,0,0,1,254.025,15.391Z" transform="translate(-214.477 -0.004)" fill="#7f0b2a"/>
          <g id="Group_10" data-name="Group 10" transform="translate(16.676 55.197)">
            <path id="Path_932" data-name="Path 932" d="M215.491,473.805v3.685H213.74v-3.685a.875.875,0,0,1,1.751,0Z" transform="translate(-213.74 -472.93)" fill="#249b8f"/>
            <path id="Path_933" data-name="Path 933" d="M285.231,473.805v3.685H283.48v-3.685a.875.875,0,0,1,1.751,0Z" transform="translate(-275.341 -472.93)" fill="#249b8f"/>
          </g>
          <path id="Path_934" data-name="Path 934" d="M230.047,329.877a3.482,3.482,0,0,1-3.478-3.478v-.118a.9.9,0,1,1,1.809,0v.118a1.669,1.669,0,1,0,3.339,0v-.118a.9.9,0,1,1,1.809,0v.118A3.482,3.482,0,0,1,230.047,329.877Z" transform="translate(-208.396 -287.402)" fill="#e8979f"/>
          <g id="Group_11" data-name="Group 11" transform="translate(14.726 30.798)">
            <path id="Path_935" data-name="Path 935" d="M197.94,268.287a.9.9,0,0,1-.9-.9v-2.6a.9.9,0,1,1,1.809,0v2.6A.9.9,0,0,1,197.94,268.287Z" transform="translate(-197.036 -263.879)" fill="none"/>
            <path id="Path_936" data-name="Path 936" d="M301.109,268.287a.9.9,0,0,1-.9-.9v-2.6a.9.9,0,1,1,1.809,0v2.6A.9.9,0,0,1,301.109,268.287Z" transform="translate(-288.164 -263.879)" fill="none"/>
          </g>
          <g id="Group_12" data-name="Group 12" transform="translate(13.26 28.092)">
            <path id="Path_937" data-name="Path 937" d="M189,242.5h-3.629a.9.9,0,1,1,0-1.809H189a.9.9,0,1,1,0,1.809Z" transform="translate(-184.47 -240.691)" fill="none"/>
            <path id="Path_938" data-name="Path 938" d="M286.21,242.5h-3.629a.9.9,0,1,1,0-1.809h3.629a.9.9,0,1,1,0,1.809Z" transform="translate(-270.332 -240.691)" fill="none"/>
          </g>
          <path id="Path_939" data-name="Path 939" d="M242.725,265.932h-1.158v-3.04a.9.9,0,1,0-1.8,0v3.973a.919.919,0,0,0,.917.9h2.041a.917.917,0,0,0,0-1.835Z" transform="translate(-220.054 -231.414)" fill="#dda68c"/>
        </g>
      </g>
      <g id="united-kingdom" transform="translate(0 29.456)">
        <path id="Path_940" data-name="Path 940" d="M31.741,109.437H.557A.557.557,0,0,1,0,108.88V88.833a.557.557,0,0,1,.557-.557H31.741a.557.557,0,0,1,.557.557V108.88A.557.557,0,0,1,31.741,109.437Z" transform="translate(0 -88.276)" fill="#41479b"/>
        <path id="Path_941" data-name="Path 941" d="M32.3,88.833a.557.557,0,0,0-.557-.557H29.25L18.933,95.035V88.276H13.365v6.759L3.048,88.276H.557A.557.557,0,0,0,0,88.833v1.44l8.851,5.8H0v5.569H8.851L0,107.44v1.44a.557.557,0,0,0,.557.557H3.048l10.316-6.759v6.759h5.569v-6.759l10.316,6.759h2.491a.557.557,0,0,0,.557-.557v-1.44l-8.851-5.8H32.3V96.072H23.447l8.851-5.8Z" transform="translate(0 -88.276)" fill="#f5f5f5"/>
        <g id="Group_13" data-name="Group 13" transform="translate(0 0)">
          <path id="Path_942" data-name="Path 942" d="M32.3,97.186H17.82v-8.91H14.478v8.91H0v3.341H14.478v8.91H17.82v-8.91H32.3Z" transform="translate(0 -88.276)" fill="#ff4b55"/>
          <path id="Path_943" data-name="Path 943" d="M11.523,300.138.25,307.455a.55.55,0,0,0,.541.479h.767l12.01-7.8H11.523Z" transform="translate(-0.234 -286.773)" fill="#ff4b55"/>
          <path id="Path_944" data-name="Path 944" d="M316.006,300.138H313.96l11.993,7.785a.551.551,0,0,0,.5-.545v-.458Z" transform="translate(-294.155 -286.773)" fill="#ff4b55"/>
          <path id="Path_945" data-name="Path 945" d="M0,90.254l10.205,6.625h2.046L.324,89.137a.555.555,0,0,0-.324.5Z" transform="translate(0 -89.083)" fill="#ff4b55"/>
          <path id="Path_946" data-name="Path 946" d="M302.184,96.073l11.3-7.335a.549.549,0,0,0-.538-.461h-.8l-12.01,7.8Z" transform="translate(-281.205 -88.277)" fill="#ff4b55"/>
        </g>
      </g>
    </g>
    <g id="Collab_3" data-name="Collab 3" transform="translate(185.055 3462.235)">
      <g id="Avatar-2" data-name="Avatar" transform="translate(44.144 0)">
        <circle id="Ellipse_14-2" data-name="Ellipse 14" cx="39.73" cy="39.73" r="39.73" fill="#f0f0f0"/>
      </g>
      <g id="girl_" data-name="girl " transform="translate(59.279 13.874)">
        <path id="Path_965" data-name="Path 965" d="M58.555,28.013a3.222,3.222,0,0,0-1.1-2.437.147.147,0,0,1,.006-.225,3.247,3.247,0,0,0-.172-5.234.147.147,0,0,1-.025-.22,3.23,3.23,0,0,0,.85-2.194,3.193,3.193,0,0,0-1.882-2.934.146.146,0,0,1-.054-.224,3.234,3.234,0,0,0,.694-2.009,3.145,3.145,0,0,0-3.1-3.193H53.7a.144.144,0,0,1-.133-.2,3.541,3.541,0,0,0-.582-3.412.162.162,0,0,0-.028-.03,3.29,3.29,0,0,0-3.186-.76.142.142,0,0,1-.183-.142v0a3.145,3.145,0,0,0-3.1-3.193,3.017,3.017,0,0,0-1.843.629.138.138,0,0,1-.213-.061,3.05,3.05,0,0,0-5.444-.556.139.139,0,0,1-.241-.008A3.075,3.075,0,0,0,36.065,0a3.01,3.01,0,0,0-1.637.484.137.137,0,0,1-.15,0A3.009,3.009,0,0,0,32.64,0a3.075,3.075,0,0,0-2.686,1.612.139.139,0,0,1-.241.008,3.05,3.05,0,0,0-5.444.556.138.138,0,0,1-.213.061,3.017,3.017,0,0,0-1.843-.629,3.145,3.145,0,0,0-3.1,3.193v0a.142.142,0,0,1-.183.142,3.29,3.29,0,0,0-3.186.76.162.162,0,0,0-.028.03,3.541,3.541,0,0,0-.582,3.412.144.144,0,0,1-.133.2h-.079a3.145,3.145,0,0,0-3.1,3.193,3.234,3.234,0,0,0,.694,2.009.146.146,0,0,1-.054.224A3.193,3.193,0,0,0,10.592,17.7a3.231,3.231,0,0,0,.85,2.194.147.147,0,0,1-.025.22,3.247,3.247,0,0,0-.172,5.234.147.147,0,0,1,.006.225,3.241,3.241,0,0,0,.518,5.239.147.147,0,0,1,.032.229,3.228,3.228,0,0,0-.913,2.26,3.2,3.2,0,0,0,1.854,2.922.147.147,0,0,1,.079.176,3.56,3.56,0,0,0,.775,3.265.157.157,0,0,0,.028.028,3.425,3.425,0,0,0,2.594.765.142.142,0,0,1,.158.163,3.7,3.7,0,0,0,.733,2.665.166.166,0,0,0,.027.03,3.3,3.3,0,0,0,3.142.819.14.14,0,0,1,.177.127,3.133,3.133,0,0,0,3.082,2.93A3.058,3.058,0,0,0,26.018,45.9a.137.137,0,0,1,.223,0,3.058,3.058,0,0,0,2.481,1.287,3.1,3.1,0,0,0,2.91-2.107.141.141,0,0,1,.147-.1,23.122,23.122,0,0,0,6.332-.163.141.141,0,0,1,.157.1,3.107,3.107,0,0,0,2.958,2.263,3.021,3.021,0,0,0,1.883-.659.139.139,0,0,1,.175,0,3.021,3.021,0,0,0,1.883.659,3.133,3.133,0,0,0,3.082-2.93.14.14,0,0,1,.177-.127,3.3,3.3,0,0,0,3.142-.819.162.162,0,0,0,.027-.03,3.7,3.7,0,0,0,.733-2.665.142.142,0,0,1,.158-.163,3.425,3.425,0,0,0,2.594-.765.159.159,0,0,0,.028-.028,3.56,3.56,0,0,0,.775-3.265.147.147,0,0,1,.079-.176A3.2,3.2,0,0,0,57.818,33.3a3.228,3.228,0,0,0-.913-2.26.146.146,0,0,1,.032-.229A3.2,3.2,0,0,0,58.555,28.013Z" transform="translate(-10.003)" fill="#423e3c"/>
        <path id="Path_966" data-name="Path 966" d="M320.224,32.568a3.224,3.224,0,0,1,1.055,2.4,3.19,3.19,0,0,1-1.971,2.973,3.27,3.27,0,0,1,.164,1.02,3.145,3.145,0,0,1-3.1,3.193,2.992,2.992,0,0,1-.618-.063,3.267,3.267,0,0,1,.063.638,3.145,3.145,0,0,1-3.1,3.193,3.014,3.014,0,0,1-1-.175,3.14,3.14,0,0,1-3.091,3.11,3.025,3.025,0,0,1-1.97-.73,3.025,3.025,0,0,1-2.747.628,3.156,3.156,0,0,0,2.25-2.438.545.545,0,0,1,.622-.43,2.949,2.949,0,0,0,.446.034,3.145,3.145,0,0,0,3.1-3.193v-.007a.554.554,0,0,1,.55-.568h.007a3.145,3.145,0,0,0,3.1-3.193,3.21,3.21,0,0,0-.058-.6.569.569,0,0,1,.273-.6,3.245,3.245,0,0,0,.963-4.712.576.576,0,0,1,.105-.8,3.251,3.251,0,0,0,.452-4.714.574.574,0,0,1,.018-.783,3.255,3.255,0,0,0-.167-4.728.573.573,0,0,1-.085-.763,3.247,3.247,0,0,0-.9-4.62.578.578,0,0,1-.189-.786,3.58,3.58,0,0,0-.509-4.149.545.545,0,0,0-.2-.155,5.78,5.78,0,0,0-1.546-.508.559.559,0,0,1-.471-.67,3.582,3.582,0,0,0-.732-2.971.58.58,0,0,0-.109-.112,3.24,3.24,0,0,0-3.28-.605c0-.07.01-.141.01-.213a3.145,3.145,0,0,0-3.1-3.193,3.02,3.02,0,0,0-1.989.749c-.415-1.261,1.4-2.169,2.565-2.169a3.1,3.1,0,0,1,2.929,2.169,3.021,3.021,0,0,1,1.991-.749,3.145,3.145,0,0,1,3.1,3.193c0,.072-.007.142-.011.213a2.983,2.983,0,0,1,1.459-.191A3.181,3.181,0,0,1,317.233,9.5a3.258,3.258,0,0,1-.3,1.521c.1-.01.2-.016.3-.016a3.145,3.145,0,0,1,3.1,3.193,3.237,3.237,0,0,1-.819,2.159,3.187,3.187,0,0,1,2.062,3.007,3.231,3.231,0,0,1-.974,2.321,3.241,3.241,0,0,1,.173,5.434,3.238,3.238,0,0,1-.55,5.448Z" transform="translate(-273.464 -1.662)" fill="#302d2c"/>
        <path id="Path_967" data-name="Path 967" d="M74.617,128.855H74.44a3.019,3.019,0,0,0-2.971,3.065h0a3.019,3.019,0,0,0,2.971,3.065h.188A11.037,11.037,0,0,0,85.5,145.718h2.188v.951c0,1.019-.013.989-.956,1.126a4.473,4.473,0,0,0-2.021.839,4.779,4.779,0,0,0-1.892,3.811v4.491H96.654v-4.491a4.779,4.779,0,0,0-1.892-3.811,4.474,4.474,0,0,0-2.021-.839c-.943-.137-.956-.107-.956-1.126v-.951h2.187A11.055,11.055,0,0,0,104.852,134.5v-5.641a12.113,12.113,0,0,0-11.92-12.3H86.537A12.113,12.113,0,0,0,74.617,128.855Z" transform="translate(-65.385 -104.656)" fill="#8e6859"/>
        <path id="Path_968" data-name="Path 968" d="M270.348,128.855h-.228v-7.846a4.384,4.384,0,0,0-4.314-4.451h0v17.9a11.088,11.088,0,0,1-10.913,11.257h4.314a11.07,11.07,0,0,0,10.9-10.734h.24a2.922,2.922,0,0,0,2.181-.984,3.107,3.107,0,0,0,.79-2.081h0A3.019,3.019,0,0,0,270.348,128.855Z" transform="translate(-230.653 -104.656)" fill="#875b4c"/>
        <path id="Path_969" data-name="Path 969" d="M433.062,287.376h0Z" transform="translate(-391.186 -258.032)"/>
        <g id="Group_18" data-name="Group 18" transform="translate(13.895 27.567)">
          <ellipse id="Ellipse_19" data-name="Ellipse 19" cx="1.626" cy="1.677" rx="1.626" ry="1.677" fill="#ce6b55"/>
          <ellipse id="Ellipse_20" data-name="Ellipse 20" cx="1.626" cy="1.677" rx="1.626" ry="1.677" transform="translate(17.657)" fill="#ce6b55"/>
        </g>
        <path id="Path_970" data-name="Path 970" d="M218.256,331.557h0a3.8,3.8,0,0,0,3.736,3.854h0a3.8,3.8,0,0,0,3.736-3.854h0a.174.174,0,0,0-.171-.177h-7.129A.174.174,0,0,0,218.256,331.557Z" transform="translate(-197.642 -297.543)" fill="#fff"/>
        <path id="Path_971" data-name="Path 971" d="M218.91,422.267a4.56,4.56,0,0,0-.773-.186l-.3-.044v3.475a.5.5,0,0,1-.495.511h-4.418a.5.5,0,0,1-.495-.511v-3.475l-.3.044a4.548,4.548,0,0,0-.773.186,4.4,4.4,0,0,0-.709.31v8.645h8.979v-8.645A4.379,4.379,0,0,0,218.91,422.267Z" transform="translate(-190.78 -378.942)" fill="#abc129"/>
        <path id="Path_972" data-name="Path 972" d="M99.589,91.208H87.346a11.913,11.913,0,0,0-11.733,12.185s0,.008,0,.01a3.185,3.185,0,0,0,6.348.464.137.137,0,0,1,.191-.11,3.377,3.377,0,0,0,3.45-.489.159.159,0,0,0,.029-.027,3.762,3.762,0,0,0,.957-2.939.139.139,0,0,1,.154-.159,3.5,3.5,0,0,0,2.819-.959.165.165,0,0,0,.026-.029,3.74,3.74,0,0,0,.678-3.057.14.14,0,0,1,.168-.172,3.094,3.094,0,0,0,.759.094,3.126,3.126,0,0,0,2.18-.889.138.138,0,0,1,.193,0,3.126,3.126,0,0,0,2.18.889,3.094,3.094,0,0,0,.759-.094.14.14,0,0,1,.168.172,3.74,3.74,0,0,0,.678,3.057.161.161,0,0,0,.026.029,3.5,3.5,0,0,0,2.819.959.139.139,0,0,1,.154.159,3.761,3.761,0,0,0,.957,2.939.161.161,0,0,0,.029.027,3.376,3.376,0,0,0,3.45.489.137.137,0,0,1,.191.11,3.185,3.185,0,0,0,6.348-.464s0-.006,0-.01A11.914,11.914,0,0,0,99.589,91.208Z" transform="translate(-69.118 -81.895)" fill="#423e3c"/>
        <g id="Group_19" data-name="Group 19" transform="translate(18.976 21.4)">
          <path id="Path_973" data-name="Path 973" d="M235.7,278.952a2.369,2.369,0,0,1-2.186-1.495.8.8,0,0,1,.407-1.035.757.757,0,0,1,1,.42.833.833,0,0,0,1.537.036.755.755,0,0,1,1.02-.372.8.8,0,0,1,.361,1.053A2.38,2.38,0,0,1,235.7,278.952Z" transform="translate(-230.31 -269.542)" fill="#302d2c"/>
          <path id="Path_974" data-name="Path 974" d="M202.479,215.337a.778.778,0,0,1-.765-.789v-4.175a.766.766,0,1,1,1.531,0v4.175A.778.778,0,0,1,202.479,215.337Z" transform="translate(-201.714 -209.583)" fill="none"/>
          <path id="Path_975" data-name="Path 975" d="M295.585,215.337a.778.778,0,0,1-.765-.789v-4.175a.766.766,0,1,1,1.53,0v4.175A.778.778,0,0,1,295.585,215.337Z" transform="translate(-285.604 -209.583)" fill="none"/>
        </g>
      </g>
      <g id="france" transform="translate(0 30.27)">
        <path id="Path_976" data-name="Path 976" d="M10.924,107.683H.565A.54.54,0,0,1,0,107.172V88.783a.54.54,0,0,1,.565-.511H10.924Z" transform="translate(0 -88.272)" fill="#41479b"/>
        <rect id="Rectangle_55" data-name="Rectangle 55" width="10.925" height="19.411" transform="translate(10.925 0)" fill="#f5f5f5"/>
        <path id="Path_977" data-name="Path 977" d="M351.692,107.684H341.333V88.273h10.359a.54.54,0,0,1,.565.511v18.389A.54.54,0,0,1,351.692,107.684Z" transform="translate(-319.484 -88.273)" fill="#ff4b55"/>
      </g>
    </g>
    <g id="Collab_4" data-name="Collab 4" transform="translate(185.055 3563.766)">
      <g id="Avatar-3" data-name="Avatar" transform="translate(44.144 0)">
        <circle id="Ellipse_14-3" data-name="Ellipse 14" cx="39.73" cy="39.73" r="39.73" fill="#f1f1f1"/>
      </g>
      <g id="france-2" data-name="france" transform="translate(0 30.27)">
        <path id="Path_976-2" data-name="Path 976" d="M10.924,107.683H.565A.54.54,0,0,1,0,107.172V88.783a.54.54,0,0,1,.565-.511H10.924Z" transform="translate(0 -88.272)" fill="#ebebeb"/>
        <rect id="Rectangle_55-2" data-name="Rectangle 55" width="10.925" height="19.411" transform="translate(10.925 0)" fill="#ebebeb"/>
        <path id="Path_977-2" data-name="Path 977" d="M351.692,107.684H341.333V88.273h10.359a.54.54,0,0,1,.565.511v18.389A.54.54,0,0,1,351.692,107.684Z" transform="translate(-319.484 -88.273)" fill="#ebebeb"/>
      </g>
      <g id="Text" transform="translate(139.37 18.288)">
        <rect id="Rectangle_56" data-name="Rectangle 56" width="66.216" height="17.027" transform="translate(0 0)" fill="#f2f2f2"/>
        <rect id="Rectangle_57" data-name="Rectangle 57" width="100.271" height="16.396" transform="translate(0 26.487)" fill="#f2f2f2"/>
      </g>
    </g>
    <g id="Rectangle_58" data-name="Rectangle 58" transform="translate(185.055 3306.468)" fill="#fcfcfc" stroke="#c3c3c3" stroke-width="1" stroke-dasharray="8">
      <rect width="294.505" height="136.847" stroke="none"/>
      <rect x="0.5" y="0.5" width="293.505" height="135.847" fill="none"/>
    </g>
    <g transform="matrix(1, 0, 0, 1, -38.79, 3013.11)" filter="url(#Rectangle_59)">
      <rect id="Rectangle_59-2" data-name="Rectangle 59" width="287.684" height="110.361" rx="10" transform="translate(280.61 306.6)" fill="#fff"/>
    </g>
    <g id="Collab_2" data-name="Collab 2" transform="translate(259.469 3335.477)">
      <g id="Avatar-4" data-name="Avatar" transform="translate(44.144 0)">
        <circle id="Ellipse_14-4" data-name="Ellipse 14" cx="39.73" cy="39.73" r="39.73" fill="#f0f0f0"/>
        <g id="hipster" transform="translate(17.658 11.351)">
          <path id="Path_947" data-name="Path 947" d="M204.031,416.443V411.6a5.063,5.063,0,0,0-4.351-5.013c-1.049-.148-1.063-.116-1.063-1.214v-.725h-4.562v.725c0,1.1-.014,1.066-1.063,1.214a5.063,5.063,0,0,0-4.351,5.013v4.841Z" transform="translate(-174.263 -360.196)" fill="#f3d1bb"/>
          <path id="Path_948" data-name="Path 948" d="M204.033,425.857V430.7H188.644v-4.841a5.068,5.068,0,0,1,4.351-5.014,2.687,2.687,0,0,0,.836-.179l.2.044.494.279a3.676,3.676,0,0,0,3.6.012l.524-.292.2-.043a2.693,2.693,0,0,0,.836.179,5.064,5.064,0,0,1,4.351,5.014Z" transform="translate(-174.265 -374.451)" fill="#459de5"/>
          <g id="Group_14" data-name="Group 14" transform="translate(17.405 51.943)">
            <path id="Path_949" data-name="Path 949" d="M217.846,473.644v3.478h-1.653v-3.478a.826.826,0,0,1,1.653,0Z" transform="translate(-216.193 -472.818)" fill="#1d87ce"/>
            <path id="Path_950" data-name="Path 950" d="M287.786,473.644v3.478h-1.653v-3.478a.826.826,0,0,1,1.653,0Z" transform="translate(-278.45 -472.818)" fill="#1d87ce"/>
          </g>
          <path id="Path_951" data-name="Path 951" d="M75.157,117.448v13.073h-.122a3.3,3.3,0,0,0-3.3,3.3h0a3.3,3.3,0,0,0,3.3,3.3h.127a12.149,12.149,0,0,0,12.143,11.789h9.361a12.149,12.149,0,0,0,12.149-12.149v-19.32Z" transform="translate(-70.197 -104.545)" fill="#f3d1bb"/>
          <path id="Path_952" data-name="Path 952" d="M272.127,130.634h-.177V117.448h-4.8v19.319A12.147,12.147,0,0,1,255,148.916h4.8a12.148,12.148,0,0,0,12.139-11.675h.187a3.3,3.3,0,0,0,3.3-3.3h0A3.3,3.3,0,0,0,272.127,130.634Z" transform="translate(-233.33 -104.545)" fill="#e8c0a8"/>
          <g id="Group_15" data-name="Group 15" transform="translate(5.021 31.129)">
            <path id="Path_953" data-name="Path 953" d="M120.135,288.392c-4.253,3.817-16.671.608-16.671.608v6.447a13.568,13.568,0,0,0,13.568,13.568h6.386a13.568,13.568,0,0,0,13.568-13.568V289s-11.825,3.209-16.078-.608A.575.575,0,0,0,120.135,288.392Z" transform="translate(-103.464 -287.706)" fill="#603813"/>
            <path id="Path_954" data-name="Path 954" d="M215.59,285.011a1.4,1.4,0,0,0-1.907-1.548,2.792,2.792,0,0,0-1.565,1.442,4.368,4.368,0,0,1-1.932,2.182.22.22,0,0,0,.062.41C211.7,287.771,215.023,288.052,215.59,285.011Z" transform="translate(-198.358 -283.357)" fill="#603813"/>
            <path id="Path_955" data-name="Path 955" d="M256.839,285.011a1.4,1.4,0,0,1,1.907-1.548,2.792,2.792,0,0,1,1.565,1.442,4.368,4.368,0,0,0,1.932,2.182.22.22,0,0,1-.062.41C260.731,287.771,257.406,288.052,256.839,285.011Z" transform="translate(-239.967 -283.357)" fill="#603813"/>
          </g>
          <g id="Group_16" data-name="Group 16" transform="translate(10.152 28.351)">
            <circle id="Ellipse_17" data-name="Ellipse 17" cx="1.81" cy="1.81" r="1.81" transform="translate(0)" fill="#e8979f"/>
            <circle id="Ellipse_18" data-name="Ellipse 18" cx="1.81" cy="1.81" r="1.81" transform="translate(19.656)" fill="#e8979f"/>
          </g>
          <path id="Path_956" data-name="Path 956" d="M101.258,9.666A3.977,3.977,0,0,0,95.9,6.135C95.45,2.74,92.08.984,92.08.984,83.225-3.289,66.254,7.732,66.254,7.732c-3.434-2.468-5.595-2-6.854-1.05a4.1,4.1,0,0,0-1.585,2.984c-.672,9.232,4.837,14.171,4.837,14.171a16.024,16.024,0,0,0,4.053-9.308c14.414,5.056,22.385,1.284,25.581-1.053a16.292,16.292,0,0,0,4.134,10.362S101.93,18.9,101.258,9.666Z" transform="translate(-57.758 0)" fill="#603813"/>
          <path id="Path_957" data-name="Path 957" d="M284.156,23.841a15.3,15.3,0,0,1-2.623-3.954,19.222,19.222,0,0,0,1.53-9.247,4.1,4.1,0,0,0-1.585-2.983,3.9,3.9,0,0,0-3.071-.705.747.747,0,0,1-.838-.547,7.926,7.926,0,0,0-3.684-4.446,11.366,11.366,0,0,0-5.222-.981c4-1.111,8.067-1.479,11.153.01,0,0,3.37,1.755,3.824,5.15a3.976,3.976,0,0,1,5.354,3.531C289.664,18.9,284.156,23.841,284.156,23.841Z" transform="translate(-245.493 -0.003)" fill="#4f2b0e"/>
          <g id="Group_17" data-name="Group 17" transform="translate(12.257 20.443)">
            <path id="Path_958" data-name="Path 958" d="M170.184,189.167a.851.851,0,0,1-.306-1.646l3.579-1.375a.851.851,0,0,1,.611,1.589l-3.579,1.375A.85.85,0,0,1,170.184,189.167Z" transform="translate(-169.333 -186.089)" fill="none"/>
            <path id="Path_959" data-name="Path 959" d="M304.386,189.167a.85.85,0,0,1-.305-.057l-3.579-1.375a.851.851,0,0,1,.611-1.589l3.579,1.375a.851.851,0,0,1-.306,1.646Z" transform="translate(-285.606 -186.089)" fill="none"/>
            <path id="Path_960" data-name="Path 960" d="M205.56,234.762a.851.851,0,0,1-.851-.851v-2.646a.851.851,0,1,1,1.7,0v2.646A.851.851,0,0,1,205.56,234.762Z" transform="translate(-200.823 -225.545)" fill="none"/>
            <path id="Path_961" data-name="Path 961" d="M298.013,234.762a.851.851,0,0,1-.851-.851v-2.646a.851.851,0,1,1,1.7,0v2.646A.851.851,0,0,1,298.013,234.762Z" transform="translate(-283.119 -225.545)" fill="none"/>
          </g>
          <path id="Path_962" data-name="Path 962" d="M236.664,269.611a2.535,2.535,0,0,1-2.339-1.551.824.824,0,1,1,1.518-.642.892.892,0,0,0,1.627.037.824.824,0,0,1,1.487.71A2.553,2.553,0,0,1,236.664,269.611Z" transform="translate(-214.869 -237.593)" fill="#dda68c"/>
        </g>
      </g>
      <g id="germany" transform="translate(0 29.009)">
        <path id="Path_963" data-name="Path 963" d="M32.63,95.538H0V88.849a.568.568,0,0,1,.563-.573h31.5a.568.568,0,0,1,.563.573v6.689Z" transform="translate(0 -88.276)" fill="#464655"/>
        <path id="Path_964" data-name="Path 964" d="M32.067,319.171H.563A.568.568,0,0,1,0,318.6v-6.689H32.63V318.6A.568.568,0,0,1,32.067,319.171Z" transform="translate(0 -297.385)" fill="#ffe15a"/>
        <rect id="Rectangle_54" data-name="Rectangle 54" width="32.63" height="7.262" transform="translate(0 7.262)" fill="#ff4b55"/>
      </g>
    </g>
    <g id="writing" transform="translate(326.498 3234.221)">
      <g id="Group_93" data-name="Group 93" transform="translate(0)">
        <g id="Group_92" data-name="Group 92">
          <path id="Path_1360" data-name="Path 1360" d="M119.842,201.088A1.088,1.088,0,0,0,118.754,200H107.547a1.088,1.088,0,1,0,0,2.176h11.207A1.088,1.088,0,0,0,119.842,201.088Z" transform="translate(-102.113 -189.119)" fill="#3498db"/>
          <path id="Path_1361" data-name="Path 1361" d="M107.547,280a1.088,1.088,0,0,0,0,2.176h6.806a1.088,1.088,0,0,0,0-2.176Z" transform="translate(-102.113 -264.767)" fill="#3498db"/>
          <path id="Path_1362" data-name="Path 1362" d="M34.561,25.678H30.922A2.179,2.179,0,0,1,28.746,23.5V4.352a2.179,2.179,0,0,1,2.176-2.176H44.3a2.179,2.179,0,0,1,2.176,2.176v6.692a1.088,1.088,0,1,0,2.176,0V4.352A4.357,4.357,0,0,0,44.3,0H30.922A4.357,4.357,0,0,0,26.57,4.352V23.5a4.357,4.357,0,0,0,4.352,4.352h3.639a1.088,1.088,0,0,0,0-2.176Z" transform="translate(-26.57)" fill="#3498db"/>
          <path id="Path_1363" data-name="Path 1363" d="M255.667,272.979a3.268,3.268,0,0,0-4.615,0l-5.974,5.96a1.088,1.088,0,0,0-.273.454l-1.3,4.283a1.088,1.088,0,0,0,1.332,1.365l4.392-1.217a1.087,1.087,0,0,0,.478-.278l5.961-5.95A3.268,3.268,0,0,0,255.667,272.979Zm-7.3,8.824-2.209.612.647-2.129,4.031-4.022,1.539,1.539Zm5.758-5.747-.211.21-1.539-1.539.21-.21a1.088,1.088,0,0,1,1.539,1.538Z" transform="translate(-231.658 -257.225)" fill="#3498db"/>
          <path id="Path_1364" data-name="Path 1364" d="M118.754,120H107.547a1.088,1.088,0,1,0,0,2.176h11.207a1.088,1.088,0,0,0,0-2.176Z" transform="translate(-102.113 -113.472)" fill="#3498db"/>
        </g>
      </g>
    </g>
    <text id="Edited" transform="translate(386.969 3253.593)" fill="#ababab" font-size="15" font-family="Lato-Bold, Lato" font-weight="700" opacity="0.75"><tspan x="-21.788" y="0">Edited</tspan></text>
    <g id="writing-2" data-name="writing" transform="translate(336.116 3488.653)">
      <g id="Group_106" data-name="Group 106" transform="translate(0)">
        <g id="Group_105" data-name="Group 105" transform="translate(0)">
          <g id="magnifying-glass" transform="translate(8.589 14.558)">
            <g id="Group_104" data-name="Group 104" transform="translate(0)">
              <path id="Path_1370" data-name="Path 1370" d="M9.429,0A6.554,6.554,0,0,0,4.387,10.744l-4.2,4.174a.624.624,0,1,0,.88.886l4.209-4.18a6.553,6.553,0,0,0,7.366.651.624.624,0,0,0-.612-1.089,5.305,5.305,0,1,1,2.017-2,.624.624,0,1,0,1.085.619A6.558,6.558,0,0,0,9.429,0Z" transform="translate(0)" fill="#feca57"/>
            </g>
          </g>
          <path id="Path_1371" data-name="Path 1371" d="M118.4,200.971a.971.971,0,0,0-.971-.971h-10a.971.971,0,0,0,0,1.941h10A.971.971,0,0,0,118.4,200.971Z" transform="translate(-102.582 -190.295)" fill="#feca57"/>
          <path id="Path_1372" data-name="Path 1372" d="M107.43,280a.971.971,0,0,0,0,1.941H113.5a.971.971,0,0,0,0-1.941Z" transform="translate(-102.582 -266.412)" fill="#feca57"/>
          <path id="Path_1373" data-name="Path 1373" d="M33.7,22.9H30.452a1.943,1.943,0,0,1-1.941-1.941V3.882a1.943,1.943,0,0,1,1.941-1.941H42.384a1.943,1.943,0,0,1,1.941,1.941V9.851a.971.971,0,1,0,1.941,0V3.882A3.887,3.887,0,0,0,42.384,0H30.452A3.887,3.887,0,0,0,26.57,3.882V20.964a3.887,3.887,0,0,0,3.882,3.882H33.7a.971.971,0,0,0,0-1.941Z" transform="translate(-26.57)" fill="#feca57"/>
          <path id="Path_1375" data-name="Path 1375" d="M117.426,120h-10a.971.971,0,0,0,0,1.941h10a.971.971,0,0,0,0-1.941Z" transform="translate(-102.582 -114.177)" fill="#feca57"/>
        </g>
      </g>
    </g>
    <text id="Reviewed" transform="translate(376.335 3507.15)" fill="#ababab" font-size="15" font-family="Lato-Bold, Lato" font-weight="700" opacity="0.75"><tspan x="0" y="0">Reviewed</tspan></text>
    <text id="Published" transform="translate(439.288 3378.623)" fill="#ababab" font-size="15" font-family="Lato-Bold, Lato" font-weight="700" opacity="0.75"><tspan x="0" y="0">Published</tspan></text>
  </g>
</svg>
