<svg xmlns="http://www.w3.org/2000/svg" width="67.614" height="65.18" viewBox="0 0 67.614 65.18">
  <g id="team" transform="translate(0 -0.029)">
    <g id="Group_21" data-name="Group 21" transform="translate(7.948 15.352)">
      <g id="Group_20" data-name="Group 20">
        <path id="Path_978" data-name="Path 978" d="M69.785,120.385a.993.993,0,0,0-1.368.006,2.715,2.715,0,0,1-3.736.017.993.993,0,0,0-1.368.006.909.909,0,0,0,.007,1.319,4.634,4.634,0,0,0,3.22,1.277h.023a4.632,4.632,0,0,0,3.23-1.307A.909.909,0,0,0,69.785,120.385Z" transform="translate(-63.033 -120.115)" fill="#f1c40f"/>
      </g>
    </g>
    <g id="Group_23" data-name="Group 23" transform="translate(0 0.029)">
      <g id="Group_22" data-name="Group 22" transform="translate(0 0)">
        <path id="Path_979" data-name="Path 979" d="M19.9,15.17a3.32,3.32,0,0,0,.161-6.529V8.309A8.448,8.448,0,0,0,11.468.029a8.448,8.448,0,0,0-8.589,8.28v.284a3.328,3.328,0,0,0,.168,6.613,8.364,8.364,0,0,0,4.7,5.836v.547H4.92a3.61,3.61,0,0,0-3.67,3.538v5.547a.95.95,0,0,0,.967.933h2.2a.933.933,0,1,0,0-1.865H3.185V25.127A1.707,1.707,0,0,1,4.92,23.455H7.749a.968.968,0,0,0,1.934-.009V21.679a8.844,8.844,0,0,0,2.986.1v1.669a.968.968,0,0,0,1.934.009h2.714a1.707,1.707,0,0,1,1.735,1.673v4.614H8.581a.933.933,0,1,0,0,1.865h11.44a.95.95,0,0,0,.967-.933V25.127a3.61,3.61,0,0,0-3.67-3.538H14.605v-.3A8.392,8.392,0,0,0,19.9,15.17Zm.161-4.525a1.447,1.447,0,0,1,0,2.488ZM2.879,13.253a1.458,1.458,0,0,1,0-2.729ZM11.468,1.894a6.545,6.545,0,0,1,6.654,6.415v.266c-5.483-.22-8.277-2.856-9.246-4.018a.992.992,0,0,0-1.36-.142.91.91,0,0,0-.148,1.311c.051.062.109.128.169.2A5.032,5.032,0,0,1,4.9,7.281,6.6,6.6,0,0,1,11.468,1.894Zm0,18.1a6.545,6.545,0,0,1-6.654-6.415v-4.4a7.032,7.032,0,0,0,4.094-1.95,15.129,15.129,0,0,0,9.214,3.21v3.136A6.545,6.545,0,0,1,11.468,19.994Z" transform="translate(0 -0.029)" fill="#f1c40f"/>
      </g>
    </g>
    <g id="Group_25" data-name="Group 25" transform="translate(7.683 10.929)">
      <g id="Group_24" data-name="Group 24">
        <path id="Path_980" data-name="Path 980" d="M61.9,85.447a.95.95,0,0,0-.967.933v1.158a.968.968,0,0,0,1.935,0V86.38A.95.95,0,0,0,61.9,85.447Z" transform="translate(-60.928 -85.447)" fill="#f1c40f"/>
      </g>
    </g>
    <g id="Group_27" data-name="Group 27" transform="translate(13.762 10.929)">
      <g id="Group_26" data-name="Group 26">
        <path id="Path_981" data-name="Path 981" d="M105.03,85.446a.95.95,0,0,0-.967.933v1.158a.968.968,0,0,0,1.935,0V86.379A.951.951,0,0,0,105.03,85.446Z" transform="translate(-104.063 -85.446)" fill="#f1c40f"/>
      </g>
    </g>
    <g id="Group_29" data-name="Group 29" transform="translate(44.916 0.029)">
      <g id="Group_28" data-name="Group 28" transform="translate(0 0)">
        <path id="Path_982" data-name="Path 982" d="M351.885,15.171a3.32,3.32,0,0,0,.161-6.529V8.31a8.595,8.595,0,0,0-17.178,0v.284a3.328,3.328,0,0,0,.168,6.613,8.364,8.364,0,0,0,4.7,5.836v.547h-2.829a3.61,3.61,0,0,0-3.67,3.538v5.547a.95.95,0,0,0,.967.933H337a.933.933,0,1,0,0-1.865h-1.821V25.128a1.707,1.707,0,0,1,1.735-1.673h2.829a.968.968,0,0,0,1.934-.009V21.68a8.844,8.844,0,0,0,2.986.1v1.669a.968.968,0,0,0,1.934.009h2.714a1.707,1.707,0,0,1,1.735,1.673v4.614H340.9a.933.933,0,1,0,0,1.865H352.01a.95.95,0,0,0,.967-.933V25.128a3.61,3.61,0,0,0-3.67-3.538h-2.713v-.3A8.392,8.392,0,0,0,351.885,15.171Zm.161-4.525a1.447,1.447,0,0,1,0,2.487Zm-17.178,2.608a1.458,1.458,0,0,1,0-2.729ZM343.457,1.9A6.545,6.545,0,0,1,350.11,8.31v.266c-5.483-.22-8.277-2.856-9.246-4.018a.992.992,0,0,0-1.36-.142.91.91,0,0,0-.148,1.311c.051.061.108.128.168.2a5.033,5.033,0,0,1-2.635,1.359A6.6,6.6,0,0,1,343.457,1.9Zm0,18.1A6.545,6.545,0,0,1,336.8,13.58v-4.4a7.032,7.032,0,0,0,4.094-1.95,15.128,15.128,0,0,0,9.214,3.21V13.58A6.545,6.545,0,0,1,343.457,19.995Z" transform="translate(-331.989 -0.03)" fill="#f1c40f"/>
      </g>
    </g>
    <g id="Group_31" data-name="Group 31" transform="translate(52.864 15.352)">
      <g id="Group_30" data-name="Group 30">
        <path id="Path_983" data-name="Path 983" d="M401.773,120.385a.993.993,0,0,0-1.368.006,2.715,2.715,0,0,1-3.736.017.993.993,0,0,0-1.368.006.909.909,0,0,0,.006,1.319,4.634,4.634,0,0,0,3.22,1.277h.022a4.632,4.632,0,0,0,3.23-1.307A.909.909,0,0,0,401.773,120.385Z" transform="translate(-395.02 -120.115)" fill="#f1c40f"/>
      </g>
    </g>
    <g id="Group_33" data-name="Group 33" transform="translate(51.961 10.929)">
      <g id="Group_32" data-name="Group 32">
        <path id="Path_984" data-name="Path 984" d="M393.883,85.447a.95.95,0,0,0-.967.933v1.158a.968.968,0,0,0,1.935,0V86.38A.95.95,0,0,0,393.883,85.447Z" transform="translate(-392.916 -85.447)" fill="#f1c40f"/>
      </g>
    </g>
    <g id="Group_35" data-name="Group 35" transform="translate(58.037 10.929)">
      <g id="Group_34" data-name="Group 34">
        <path id="Path_985" data-name="Path 985" d="M437.017,85.446a.95.95,0,0,0-.967.933v1.158a.968.968,0,0,0,1.935,0V86.379A.951.951,0,0,0,437.017,85.446Z" transform="translate(-436.05 -85.446)" fill="#f1c40f"/>
      </g>
    </g>
    <g id="Group_37" data-name="Group 37" transform="translate(30.317 47.531)">
      <g id="Group_36" data-name="Group 36">
        <path id="Path_986" data-name="Path 986" d="M235.06,372.576a.993.993,0,0,0-1.368.007,2.712,2.712,0,0,1-3.736.017.993.993,0,0,0-1.368.006.909.909,0,0,0,.007,1.319,4.634,4.634,0,0,0,3.22,1.278h.022a4.632,4.632,0,0,0,3.23-1.307A.909.909,0,0,0,235.06,372.576Z" transform="translate(-228.308 -372.307)" fill="#f1c40f"/>
      </g>
    </g>
    <g id="Group_39" data-name="Group 39" transform="translate(22.361 27.07)">
      <g id="Group_38" data-name="Group 38">
        <path id="Path_987" data-name="Path 987" d="M185.172,219.951a3.319,3.319,0,0,0,.161-6.529v-.331a8.315,8.315,0,0,0-5.615-7.768,3.957,3.957,0,0,0,1.457-3.051,4.176,4.176,0,0,0-8.346,0,3.945,3.945,0,0,0,1.315,2.927,8.334,8.334,0,0,0-5.989,7.892v.284a3.328,3.328,0,0,0,.168,6.613,8.364,8.364,0,0,0,4.7,5.836v.547H170.2a3.61,3.61,0,0,0-3.67,3.538v5.547a.95.95,0,0,0,.967.933h17.8a.95.95,0,0,0,.967-.933v-5.547a3.61,3.61,0,0,0-3.67-3.538h-2.713v-.3A8.392,8.392,0,0,0,185.172,219.951Zm.161-4.525a1.447,1.447,0,0,1,0,2.488Zm-17.178,2.608a1.458,1.458,0,0,1,0-2.729ZM177,200.114a2.159,2.159,0,1,1-2.238,2.158A2.2,2.2,0,0,1,177,200.114Zm-.258,6.561a6.545,6.545,0,0,1,6.654,6.415v.266c-5.483-.22-8.277-2.856-9.246-4.018a.992.992,0,0,0-1.36-.142.91.91,0,0,0-.148,1.311c.051.061.108.128.168.2a5.034,5.034,0,0,1-2.636,1.358A6.6,6.6,0,0,1,176.743,206.676Zm5.851,21.56a1.707,1.707,0,0,1,1.735,1.673v4.614H168.461v-4.614a1.707,1.707,0,0,1,1.735-1.673h2.829a.968.968,0,0,0,1.934-.009V226.46a8.842,8.842,0,0,0,2.986.1v1.669a.968.968,0,0,0,1.934.009Zm-5.851-3.461a6.545,6.545,0,0,1-6.654-6.415v-4.4a7.032,7.032,0,0,0,4.094-1.95,15.129,15.129,0,0,0,9.214,3.21v3.136A6.545,6.545,0,0,1,176.743,224.775Z" transform="translate(-165.276 -198.249)" fill="#f1c40f"/>
      </g>
    </g>
    <g id="Group_41" data-name="Group 41" transform="translate(29.914 43.112)">
      <g id="Group_40" data-name="Group 40">
        <path id="Path_988" data-name="Path 988" d="M227.169,337.638a.95.95,0,0,0-.967.933v1.158a.968.968,0,0,0,1.935,0v-1.158A.95.95,0,0,0,227.169,337.638Z" transform="translate(-226.202 -337.638)" fill="#f1c40f"/>
      </g>
    </g>
    <g id="Group_43" data-name="Group 43" transform="translate(35.618 43.112)">
      <g id="Group_42" data-name="Group 42">
        <path id="Path_989" data-name="Path 989" d="M270.3,337.638a.95.95,0,0,0-.967.933v1.158a.968.968,0,0,0,1.935,0v-1.158A.95.95,0,0,0,270.3,337.638Z" transform="translate(-269.336 -337.638)" fill="#f1c40f"/>
      </g>
    </g>
    <g id="Group_45" data-name="Group 45" transform="translate(26.613 4.209)">
      <g id="Group_44" data-name="Group 44">
        <path id="Path_990" data-name="Path 990" d="M212.566,34.415h-12.71a.933.933,0,1,0,0,1.865h12.71a.933.933,0,1,0,0-1.865Z" transform="translate(-198.889 -34.415)" fill="#f1c40f"/>
      </g>
    </g>
    <g id="Group_47" data-name="Group 47" transform="translate(48.021 39.247)">
      <g id="Group_46" data-name="Group 46">
        <path id="Path_991" data-name="Path 991" d="M371.679,303.534a.95.95,0,0,0-.967.933,12.91,12.91,0,0,1-13.125,12.653.933.933,0,1,0,0,1.865c8.3,0,15.06-6.513,15.06-14.519A.95.95,0,0,0,371.679,303.534Z" transform="translate(-356.619 -303.534)" fill="#f1c40f"/>
      </g>
    </g>
    <g id="Group_49" data-name="Group 49" transform="translate(3.454 39.247)">
      <g id="Group_48" data-name="Group 48">
        <path id="Path_992" data-name="Path 992" d="M42.453,317.12a12.91,12.91,0,0,1-13.125-12.653.968.968,0,0,0-1.935,0c0,8.006,6.756,14.519,15.059,14.519a.933.933,0,1,0,0-1.865Z" transform="translate(-27.394 -303.534)" fill="#f1c40f"/>
      </g>
    </g>
  </g>
</svg>
