<svg id="Line" xmlns="http://www.w3.org/2000/svg" width="133.118" height="157.172" viewBox="0 0 133.118 157.172">
  <g id="Group_2" data-name="Group 2" transform="translate(0 0)">
    <path id="Path_1881" data-name="Path 1881" d="M77.125-643.152,62.679-683.777q-1.288-3.2-2.714-7.5t-2.714-9.333q-1.288,5.123-2.714,9.47t-2.714,7.549L37.467-643.152ZM123.5-592.737H102.061a9.475,9.475,0,0,1-5.843-1.693,10.259,10.259,0,0,1-3.359-4.346l-9.017-25.345H30.658l-9.017,25.345a10.45,10.45,0,0,1-3.22,4.163,8.873,8.873,0,0,1-5.8,1.876H-9L43.172-725.5H71.42Z" transform="translate(9.07 725.5)" fill="#343434"/>
    <g id="Line-2" data-name="Line" transform="translate(0 137.898)">
      <path id="Path_1880" data-name="Path 1880" d="M13.757,11.49,10.416,0,0,5.932Z" transform="translate(113.662 19.274) rotate(-112)" fill="#f1c40f"/>
      <path id="Path_1877" data-name="Path 1877" d="M13.757,11.49,10.416,0,0,5.932Z" transform="translate(19.802 0) rotate(68)" fill="#f1c40f"/>
      <path id="Path_1879" data-name="Path 1879" d="M9.022,0A9.022,9.022,0,1,1,0,9.022,9.022,9.022,0,0,1,9.022,0Z" transform="translate(0 0.607)" fill="#e74c3c"/>
      <rect id="Rectangle_1" data-name="Rectangle 1" width="96.506" height="4.63" transform="translate(18.212 7.311)" fill="#f1c40f"/>
      <path id="Path_1873" data-name="Path 1873" d="M9.022,18.044A9.022,9.022,0,1,0,0,9.022,9.022,9.022,0,0,0,9.022,18.044Z" transform="translate(115.074 0.607)" fill="#37c699"/>
    </g>
  </g>
</svg>
