<?xml version="1.0" encoding="UTF-8"?>
<svg width="561px" height="133px" viewBox="0 0 561 133" version="1.1" xmlns="http://www.w3.org/2000/svg" xmlns:xlink="http://www.w3.org/1999/xlink">
    <!-- Generator: Sketch 48.2 (47327) - http://www.bohemiancoding.com/sketch -->
    <title>BG Aligner (1)</title>
    <desc>Created with Sketch.</desc>
    <defs>
        <path d="M37.787,5.681 L5.324,38.144 C-1.636,45.104 -1.636,56.494 5.324,63.454 L17.979,76.11 L63.098,30.991 C70.059,24.031 70.059,12.641 63.098,5.681 L63.097,5.681 C59.617,2.201 55.03,0.46 50.443,0.46 C45.855,0.46 41.268,2.201 37.787,5.681 Z" id="path-1"></path>
        <path d="M5.324,13.119 C-1.636,20.079 -1.636,31.469 5.324,38.428 L37.787,70.892 C44.748,77.853 56.138,77.853 63.097,70.892 L63.098,70.892 C70.059,63.932 70.059,52.543 63.098,45.582 L17.979,0.463 L5.324,13.119 Z" id="path-3"></path>
        <path d="M5.539,5.832 C-1.422,12.792 -1.422,24.182 5.539,31.142 L50.658,76.261 L63.314,63.606 C70.273,56.646 70.273,45.256 63.314,38.295 L30.85,5.832 C27.37,2.351 22.782,0.611 18.194,0.611 C13.607,0.611 9.019,2.351 5.539,5.832 Z" id="path-5"></path>
        <path d="M5.539,45.733 C-1.422,52.694 -1.422,64.082 5.539,71.044 C12.5,78.004 23.889,78.004 30.85,71.044 L63.314,38.58 C70.273,31.619 70.273,20.23 63.314,13.269 L50.658,0.614 L5.539,45.733 Z" id="path-7"></path>
    </defs>
    <g id="Page-1" stroke="none" stroke-width="1" fill="none" fill-rule="evenodd">
        <g id="BG-Aligner-(1)">
            <path d="M63.0977,36.9564 L63.0987,36.9564 C70.0587,43.9174 70.0587,55.3064 63.0987,62.2674 L17.9797,107.3864 L5.3237,94.7294 C-1.6363,87.7694 -1.6363,76.3804 5.3237,69.4204 L37.7877,36.9564 C44.7477,29.9964 56.1377,29.9964 63.0977,36.9564" id="Fill-1" fill="#FDB732"></path>
            <g id="Group-5" transform="translate(0.000000, 31.276000)">
                <mask id="mask-2" fill="white">
                    <use xlink:href="#path-1"></use>
                </mask>
                <g id="Clip-4"></g>
                <polygon id="Fill-3" fill="#FDB732" mask="url(#mask-2)" points="-1.636 76.11 70.059 76.11 70.059 -1.28 -1.636 -1.28"></polygon>
            </g>
            <path d="M63.0977,127.1683 L63.0987,127.1683 C70.0587,120.2073 70.0587,108.8183 63.0987,101.8573 L17.9797,56.7393 L5.3237,69.3943 C-1.6363,76.3553 -1.6363,87.7443 5.3237,94.7043 L37.7877,127.1683 C44.7477,134.1293 56.1377,134.1293 63.0977,127.1683" id="Fill-6" fill="#FFC737"></path>
            <g id="Group-10" transform="translate(0.000000, 56.276000)">
                <mask id="mask-4" fill="white">
                    <use xlink:href="#path-3"></use>
                </mask>
                <g id="Clip-9"></g>
                <polygon id="Fill-8" fill="#FFC737" mask="url(#mask-4)" points="-1.636 77.853 70.059 77.853 70.059 0.463 -1.636 0.463"></polygon>
            </g>
            <g id="Group-15" transform="translate(17.000000, 0.276000)">
                <polygon id="Fill-11" fill-opacity="0.5" fill="#000000" points="0.9793 56.4631 29.5083 78.5811 26.3033 81.7861"></polygon>
                <path d="M56.5394,5.8317 L56.5394,5.8327 C49.5784,12.7917 49.5784,24.1817 56.5394,31.1417 L101.6574,76.2617 L114.3134,63.6057 C121.2734,56.6447 121.2734,45.2557 114.3134,38.2957 L81.8494,5.8317 C74.8894,-1.1283 63.4994,-1.1283 56.5394,5.8317" id="Fill-13" fill="#5315C9"></path>
            </g>
            <g id="Group-18" transform="translate(68.000000, 0.276000)">
                <mask id="mask-6" fill="white">
                    <use xlink:href="#path-5"></use>
                </mask>
                <g id="Clip-17"></g>
                <polygon id="Fill-16" fill="#5315C9" mask="url(#mask-6)" points="-1.422 76.261 70.273 76.261 70.273 -1.129 -1.422 -1.129"></polygon>
            </g>
            <path d="M73.5394,96.3196 C66.5784,89.3586 66.5784,77.9696 73.5394,71.0086 L118.6574,25.8896 L131.3134,38.5456 C138.2734,45.5066 138.2734,56.8956 131.3134,63.8556 L98.8494,96.3196 C91.8894,103.2796 80.4994,103.2796 73.5394,96.3196" id="Fill-19" fill="#5E1AE2"></path>
            <g id="Group-23" transform="translate(68.000000, 25.276000)">
                <mask id="mask-8" fill="white">
                    <use xlink:href="#path-7"></use>
                </mask>
                <g id="Clip-22"></g>
                <polygon id="Fill-21" fill="#5E1AE2" mask="url(#mask-8)" points="-1.422 78.004 70.273 78.004 70.273 0.614 -1.422 0.614"></polygon>
            </g>
            <g id="Group-37" transform="translate(161.000000, 5.000000)">
                <path d="M48.6120833,61.1023401 C48.7993098,60.5294829 48.8957174,59.622692 48.8957174,58.38057 C48.8957174,54.5647826 47.2875258,51.1276397 44.0725397,48.0733331 C40.8575537,45.0190265 37.3603307,43.490476 33.5794735,43.490476 C29.2285537,43.490476 25.7061808,44.9952739 23.0123551,48.000678 C20.3185293,51.0074794 18.9716164,54.5619882 18.9716164,58.6656014 C18.9716164,61.9113261 19.9650345,64.96703 21.9504735,67.8299185 C24.9740415,71.5520927 28.7101878,73.414577 33.1547209,73.414577 C36.5555362,73.414577 39.7244143,72.2940125 42.654369,70.0500892 C45.5843237,67.8089603 47.5711599,64.8245143 48.6120833,61.1023401 Z M67.2760484,89.5160544 L48.8957174,89.5160544 L48.8957174,85.0980683 C43.5429962,88.8984864 37.7627279,90.7972983 31.5507209,90.7972983 C26.6772436,90.7972983 22.0664422,89.6529812 17.7197139,87.3713331 C13.3729857,85.0882878 9.57396481,81.8006467 6.32544564,77.5181902 C2.31125401,71.5227512 0.304856794,64.7616397 0.304856794,57.2404446 C0.304856794,50.1970962 2.08630279,43.891476 5.64779756,38.3207895 C9.21068955,32.7528976 14.4111146,28.9217408 21.2518672,26.825922 C23.0542714,25.9708279 25.0271355,25.2806049 27.1648707,24.755253 C29.3012087,24.2312983 31.2265676,23.9700195 32.9353585,23.9700195 C42.0549648,23.9700195 50.056801,26.9935875 56.9450589,33.0393261 C63.8319195,39.0850648 67.2760484,46.4847024 67.2760484,55.2438279 L67.2760484,89.5160544 Z" id="Fill-26" fill="#081D4D"></path>
                <polygon id="Fill-28" fill="#081D4D" points="80.6684704 89.6591289 100.190324 89.6591289 100.190324 0.624554007 80.6684704 0.624554007"></polygon>
                <path d="M135.099679,11.0258233 C135.099679,13.8761369 134.10207,16.2975063 132.10685,18.294123 C130.111631,20.2879453 127.641359,21.2855551 124.697432,21.2855551 C121.942129,21.2855551 119.519362,20.2879453 117.43053,18.294123 C115.3403,16.2975063 114.296582,13.8761369 114.296582,11.0258233 C114.296582,8.17550976 115.316547,5.73178502 117.359272,3.68766307 C119.400599,1.64493833 121.848516,0.624973171 124.697432,0.624973171 C127.547746,0.624973171 129.99147,1.64493833 132.03699,3.68766307 C134.078317,5.73178502 135.099679,8.17550976 135.099679,11.0258233" id="Fill-30" fill="#FFC737"></path>
                <polygon id="Fill-32" fill="#081D4D" points="115.436707 89.6591289 134.387101 89.6591289 134.387101 26.9745854 115.436707 26.9745854"></polygon>
                <path d="M183.83096,72.5590638 C186.869897,71.4105551 189.196256,69.5159348 190.812831,66.8779976 C192.426611,64.2386631 193.2342,61.3380498 193.2342,58.1719662 C193.2342,54.141008 191.973915,50.617238 189.458932,47.5964645 C186.941155,44.5742937 183.592037,43.063907 179.412974,43.063907 C174.757462,43.063907 171.005946,44.5379662 168.155632,47.481893 C165.306716,50.4272171 163.881559,53.9887118 163.881559,58.1677746 C163.881559,61.4945376 164.972782,64.6284854 167.15942,67.5724122 C168.868211,69.4740185 170.673409,70.779015 172.573618,71.4901962 C174.47243,72.2027746 176.657671,72.5590638 179.127943,72.5590638 L183.83096,72.5590638 Z M211.615929,98.455001 C210.380793,106.442865 206.74804,113.054475 200.714876,118.288433 C194.681713,123.520994 187.677486,126.136576 179.698005,126.136576 C178.08143,126.136576 174.876225,125.780287 170.080991,125.067708 C165.281566,124.35513 160.248807,121.124775 154.975726,115.378039 C149.704044,109.62851 147.067503,102.95682 147.067503,95.3573808 L166.874389,95.3573808 C166.874389,99.0627885 168.203138,102.103123 170.86343,104.476987 C173.522326,106.850851 176.610166,108.039879 180.125552,108.039879 C183.16449,108.039879 185.872287,107.135883 188.247549,105.333478 C190.242768,103.431872 191.714033,101.294137 192.665535,98.9188756 L192.665535,85.6691091 C187.724991,89.0894854 182.405803,90.7982763 176.705176,90.7982763 C168.250643,90.7982763 160.746214,87.4212136 154.193287,80.6614993 C147.637566,73.901785 144.361103,66.0494505 144.361103,57.098907 C144.361103,55.2909139 144.73835,51.9571648 145.499831,47.1018512 C146.258517,42.2493321 149.917817,37.1788477 156.472141,31.8959871 C163.026465,26.6131265 170.386981,23.9696003 178.559277,23.9696003 C186.630974,23.9696003 193.78051,26.564224 200.003695,31.7464854 C206.224085,36.9315411 210.095761,43.4243878 211.615929,51.2236282 L211.615929,98.455001 Z" id="Fill-33" fill="#081D4D"></path>
                <path d="M280.72262,89.65857 L262.484805,89.65857 L262.484805,55.9298592 L262.484805,54.0729638 C262.484805,50.7378174 261.438292,47.7855073 259.34946,45.2104446 C257.25923,42.6409707 254.790355,41.3527408 251.940041,41.3527408 C250.703508,41.3527408 249.588533,41.5441589 248.590923,41.9255979 C247.593313,42.3084341 246.475543,43.069915 245.241805,44.2128348 C243.626627,46.1172355 242.535404,48.3569672 241.963944,50.9292355 L241.963944,89.65857 L223.868644,89.65857 L223.868644,47.8176432 C224.438707,42.0094307 226.955087,37.0143958 231.420578,32.8241554 C235.884672,28.6353122 240.041379,26.1133436 243.889303,25.2554551 C247.737226,24.3989638 250.465982,23.9700195 252.082557,23.9700195 C258.825505,23.9700195 264.928529,26.135699 270.393028,30.4684551 C275.853334,34.8012111 279.297463,40.394253 280.72262,47.2475805 L280.72262,89.65857 Z" id="Fill-34" fill="#081D4D"></path>
                <path d="M339.856567,51.6124725 C337.954961,48.0481833 335.414828,45.2341972 332.233375,43.1677199 C329.049128,41.1040369 325.465278,40.0714969 321.474839,40.0714969 C318.05586,40.0714969 314.991772,41.1752948 312.283975,43.378699 C309.576177,45.5835003 307.747225,48.329023 306.798518,51.6124725 L339.856567,51.6124725 Z M355.387982,56.907908 C354.722908,58.9911519 353.34386,60.7907617 351.256424,62.3039429 C350.208515,62.6825875 349.047431,62.9676188 347.76479,63.1562425 C346.482149,63.3462634 345.318271,63.3923714 344.273156,63.2959638 L307.368581,63.2959638 C308.600922,66.8127477 310.597539,69.6616641 313.352842,71.8469045 C316.106748,74.0321449 319.145685,75.1247652 322.472448,75.1247652 C325.129947,75.1247652 327.791637,74.3660787 330.451929,72.8431171 L333.72979,69.4255352 L354.391769,69.4255352 C351.730079,75.978462 347.527264,81.1579289 341.780529,84.9569498 C336.030999,88.7545735 329.739351,90.6561798 322.899995,90.6561798 C316.819326,90.6561798 311.094947,89.1164516 305.729651,86.0355979 C300.36156,82.9547443 296.371121,78.877678 293.761128,73.8057965 C291.146943,68.733915 289.841947,63.2610334 289.841947,57.3843575 C289.841947,50.6539847 291.598243,44.4461693 295.11363,38.7581171 C298.627619,33.0700648 302.523048,29.3730404 306.798518,27.6670439 C311.073989,25.9624446 314.492968,24.9187268 317.05825,24.5400822 C319.622135,24.1614376 322.138515,23.9700195 324.608786,23.9700195 C331.828184,23.9700195 338.881313,26.7630474 345.76957,32.3477059 C352.656431,37.9309672 356.10056,44.3679254 356.10056,51.6557861 C356.10056,53.6440195 355.861637,55.3933296 355.387982,56.907908 Z" id="Fill-35" fill="#081D4D"></path>
                <path d="M399.701276,41.2112031 C397.231004,41.2112031 395.045764,41.4487293 393.146952,41.9237815 C391.245346,42.400231 389.631565,43.3028303 388.302816,44.6301822 C387.256304,46.2467571 386.735144,47.8144296 386.735144,49.3331997 L386.735144,89.6581509 L367.21329,89.6581509 L367.21329,46.7693146 C367.973374,39.7385411 371.131074,34.183224 376.689185,30.0963774 C382.247297,26.0137223 388.633955,23.9696003 395.85475,23.9696003 L397.91983,23.9696003 L399.701276,23.9696003 L399.701276,41.2112031 Z" id="Fill-36" fill="#081D4D"></path>
            </g>
            <polygon id="Fill-24" fill-opacity="0.5" fill="#000000" points="118.6578 25.89 90.1288 48.008 93.3338 51.214"></polygon>
        </g>
    </g>
</svg>