<?xml version="1.0" encoding="UTF-8"?>
<svg width="696px" height="536px" viewBox="0 0 696 536" version="1.1" xmlns="http://www.w3.org/2000/svg" xmlns:xlink="http://www.w3.org/1999/xlink">
    <!-- Generator: Sketch 48.2 (47327) - http://www.bohemiancoding.com/sketch -->
    <title>noa_logo</title>
    <desc>Created with Sketch.</desc>
    <defs>
        <polygon id="path-1" points="0 0 696 0 696 536 0 536"></polygon>
    </defs>
    <g id="Page-1" stroke="none" stroke-width="1" fill="none" fill-rule="evenodd">
        <g id="noa_logo">
            <mask id="mask-2" fill="white">
                <use xlink:href="#path-1"></use>
            </mask>
            <g id="a"></g>
            <path d="M360.2525,211.96627 C415.106,214.226162 471.395,231.479568 519.6075,260.177297 C495.378,324.164108 433.6805,370.883027 360.2525,375.620108 L360.2525,211.96627 Z M165.3725,199.870054 C165.3725,102.738162 247.2975,23.6854054 347.9855,23.6854054 C448.7025,23.6854054 530.6275,102.738162 530.6275,199.870054 C530.6275,212.400865 529.221,224.641946 526.6255,236.462919 C472.3665,205.302486 409.886,188.034595 347.9855,188.034595 L335.7185,188.034595 L335.7185,375.620108 C240.7145,369.477838 165.3725,293.003676 165.3725,199.870054 Z M140.8095,199.870054 C140.8095,306.099459 227.1715,393.192216 335.7185,399.348973 L335.7185,511.63373 C257.3895,508.678486 181.018,477.474595 124.4825,424.961081 C78.8945,382.631568 24.5775,307.070054 24.5775,187.672432 L0,187.672432 L0,536 L24.5775,536 L24.5775,320.296216 C42.6836793,366.579381 71.0095804,408.184353 107.445,442.011676 C171.4625,501.464216 259.1295,535.565405 348,535.565405 L360.2525,535.565405 L360.2525,399.363459 C442.1775,394.698811 511.3715,343.952649 540.473,273.693189 C548.535,279.342919 556.3215,285.311351 563.731,291.641946 C612.8425,333.536865 671.4225,409.953081 671.4225,536 L696,536 C696,401.101838 632.896,319.035892 579.9565,273.896 C569.948596,265.37973 559.457339,257.447277 548.535,250.138162 C552.856,234.072649 555.1905,217.210378 555.1905,199.870054 C555.1905,89.6568649 462.2455,0 347.9855,0 C233.74,0 140.8095,89.6713514 140.8095,199.870054 Z" id="Shape" fill="#000000" fill-rule="nonzero" mask="url(#mask-2)"></path>
        </g>
    </g>
</svg>