<?xml version="1.0" encoding="UTF-8"?>
<svg width="137px" height="133px" viewBox="0 0 137 133" version="1.1" xmlns="http://www.w3.org/2000/svg" xmlns:xlink="http://www.w3.org/1999/xlink">
    <!-- Generator: Sketch 48.2 (47327) - http://www.bohemiancoding.com/sketch -->
    <title>BG Aligner (1)</title>
    <desc>Created with Sketch.</desc>
    <defs>
        <path d="M37.787,5.681 L5.324,38.144 C-1.636,45.104 -1.636,56.494 5.324,63.454 L17.979,76.11 L63.098,30.991 C70.059,24.031 70.059,12.641 63.098,5.681 L63.097,5.681 C59.617,2.201 55.03,0.46 50.443,0.46 C45.855,0.46 41.268,2.201 37.787,5.681 Z" id="path-1"></path>
        <path d="M5.324,13.119 C-1.636,20.079 -1.636,31.469 5.324,38.428 L37.787,70.892 C44.748,77.853 56.138,77.853 63.097,70.892 L63.098,70.892 C70.059,63.932 70.059,52.543 63.098,45.582 L17.979,0.463 L5.324,13.119 Z" id="path-3"></path>
        <path d="M5.539,5.832 C-1.422,12.792 -1.422,24.182 5.539,31.142 L50.658,76.261 L63.314,63.606 C70.273,56.646 70.273,45.256 63.314,38.295 L30.85,5.832 C27.37,2.351 22.782,0.611 18.194,0.611 C13.607,0.611 9.019,2.351 5.539,5.832 Z" id="path-5"></path>
        <path d="M5.539,45.733 C-1.422,52.694 -1.422,64.082 5.539,71.044 C12.5,78.004 23.889,78.004 30.85,71.044 L63.314,38.58 C70.273,31.619 70.273,20.23 63.314,13.269 L50.658,0.614 L5.539,45.733 Z" id="path-7"></path>
    </defs>
    <g id="Page-1" stroke="none" stroke-width="1" fill="none" fill-rule="evenodd">
        <g id="BG-Aligner-(1)">
            <path d="M63.0977,36.9564 L63.0987,36.9564 C70.0587,43.9174 70.0587,55.3064 63.0987,62.2674 L17.9797,107.3864 L5.3237,94.7294 C-1.6363,87.7694 -1.6363,76.3804 5.3237,69.4204 L37.7877,36.9564 C44.7477,29.9964 56.1377,29.9964 63.0977,36.9564" id="Fill-1" fill="#FDB732"></path>
            <g id="Group-5" transform="translate(0.000000, 31.276000)">
                <mask id="mask-2" fill="white">
                    <use xlink:href="#path-1"></use>
                </mask>
                <g id="Clip-4"></g>
                <polygon id="Fill-3" fill="#FDB732" mask="url(#mask-2)" points="-1.636 76.11 70.059 76.11 70.059 -1.28 -1.636 -1.28"></polygon>
            </g>
            <path d="M63.0977,127.1683 L63.0987,127.1683 C70.0587,120.2073 70.0587,108.8183 63.0987,101.8573 L17.9797,56.7393 L5.3237,69.3943 C-1.6363,76.3553 -1.6363,87.7443 5.3237,94.7043 L37.7877,127.1683 C44.7477,134.1293 56.1377,134.1293 63.0977,127.1683" id="Fill-6" fill="#FFC737"></path>
            <g id="Group-10" transform="translate(0.000000, 56.276000)">
                <mask id="mask-4" fill="white">
                    <use xlink:href="#path-3"></use>
                </mask>
                <g id="Clip-9"></g>
                <polygon id="Fill-8" fill="#FFC737" mask="url(#mask-4)" points="-1.636 77.853 70.059 77.853 70.059 0.463 -1.636 0.463"></polygon>
            </g>
            <g id="Group-15" transform="translate(17.000000, 0.276000)">
                <polygon id="Fill-11" fill-opacity="0.5" fill="#000000" points="0.9793 56.4631 29.5083 78.5811 26.3033 81.7861"></polygon>
                <path d="M56.5394,5.8317 L56.5394,5.8327 C49.5784,12.7917 49.5784,24.1817 56.5394,31.1417 L101.6574,76.2617 L114.3134,63.6057 C121.2734,56.6447 121.2734,45.2557 114.3134,38.2957 L81.8494,5.8317 C74.8894,-1.1283 63.4994,-1.1283 56.5394,5.8317" id="Fill-13" fill="#5315C9"></path>
            </g>
            <g id="Group-18" transform="translate(68.000000, 0.276000)">
                <mask id="mask-6" fill="white">
                    <use xlink:href="#path-5"></use>
                </mask>
                <g id="Clip-17"></g>
                <polygon id="Fill-16" fill="#5315C9" mask="url(#mask-6)" points="-1.422 76.261 70.273 76.261 70.273 -1.129 -1.422 -1.129"></polygon>
            </g>
            <path d="M73.5394,96.3196 C66.5784,89.3586 66.5784,77.9696 73.5394,71.0086 L118.6574,25.8896 L131.3134,38.5456 C138.2734,45.5066 138.2734,56.8956 131.3134,63.8556 L98.8494,96.3196 C91.8894,103.2796 80.4994,103.2796 73.5394,96.3196" id="Fill-19" fill="#5E1AE2"></path>
            <g id="Group-23" transform="translate(68.000000, 25.276000)">
                <mask id="mask-8" fill="white">
                    <use xlink:href="#path-7"></use>
                </mask>
                <g id="Clip-22"></g>
                <polygon id="Fill-21" fill="#5E1AE2" mask="url(#mask-8)" points="-1.422 78.004 70.273 78.004 70.273 0.614 -1.422 0.614"></polygon>
            </g>
            <polygon id="Fill-24" fill-opacity="0.5" fill="#000000" points="118.6578 25.89 90.1288 48.008 93.3338 51.214"></polygon>
        </g>
    </g>
</svg>